<svg width="168" height="39" viewBox="0 0 168 39" fill="none" xmlns="http://www.w3.org/2000/svg">
<path d="M8.64 13L7.424 9.704H3.008L1.792 13H0L4.336 1.528H6.128L10.448 13H8.64ZM5.792 4.984C5.76 4.86667 5.70133 4.69067 5.616 4.456C5.54133 4.21067 5.46667 3.96533 5.392 3.72C5.31733 3.464 5.25867 3.256 5.216 3.096C5.16267 3.30933 5.09867 3.544 5.024 3.8C4.96 4.04533 4.896 4.27467 4.832 4.488C4.768 4.69067 4.71467 4.856 4.672 4.984L3.52 8.2H6.944L5.792 4.984ZM14.7568 13.16C13.7221 13.16 12.8848 12.7867 12.2448 12.04C11.6154 11.2933 11.3008 10.184 11.3008 8.712C11.3008 7.22933 11.6208 6.10933 12.2608 5.352C12.9008 4.59467 13.7434 4.216 14.7888 4.216C15.2261 4.216 15.6048 4.27467 15.9248 4.392C16.2554 4.49867 16.5381 4.648 16.7728 4.84C17.0181 5.032 17.2261 5.24533 17.3968 5.48H17.4928C17.4714 5.33067 17.4448 5.11733 17.4128 4.84C17.3808 4.552 17.3648 4.296 17.3648 4.072V0.839999H19.0608V13H17.7328L17.4448 11.848H17.3648C17.2048 12.0933 17.0021 12.3173 16.7568 12.52C16.5221 12.712 16.2394 12.8667 15.9088 12.984C15.5781 13.1013 15.1941 13.16 14.7568 13.16ZM15.1568 11.768C15.9888 11.768 16.5754 11.5387 16.9168 11.08C17.2581 10.6107 17.4288 9.912 17.4288 8.984V8.728C17.4288 7.71467 17.2634 6.94133 16.9328 6.408C16.6128 5.87467 16.0154 5.608 15.1408 5.608C14.4474 5.608 13.9248 5.89067 13.5728 6.456C13.2208 7.01067 13.0448 7.77333 13.0448 8.744C13.0448 9.71467 13.2208 10.4613 13.5728 10.984C13.9248 11.5067 14.4528 11.768 15.1568 11.768ZM31.3826 4.216C32.3533 4.216 33.084 4.46667 33.5746 4.968C34.0653 5.46933 34.3106 6.27467 34.3106 7.384V13H32.6146V7.608C32.6146 6.94667 32.4813 6.45067 32.2146 6.12C31.9586 5.77867 31.5533 5.608 30.9986 5.608C30.2306 5.608 29.6813 5.848 29.3506 6.328C29.02 6.79733 28.8546 7.48 28.8546 8.376V13H27.1746V7.608C27.1746 7.17067 27.1106 6.80267 26.9826 6.504C26.8653 6.20533 26.6893 5.98133 26.4546 5.832C26.22 5.68267 25.916 5.608 25.5426 5.608C25.0093 5.608 24.588 5.72533 24.2786 5.96C23.9693 6.19467 23.7453 6.54133 23.6066 7C23.4786 7.448 23.4146 7.99733 23.4146 8.648V13H21.7186V4.376H23.0626L23.3026 5.528H23.3986C23.58 5.22933 23.7986 4.984 24.0546 4.792C24.3213 4.6 24.6146 4.456 24.9346 4.36C25.2546 4.264 25.5853 4.216 25.9266 4.216C26.5773 4.216 27.1266 4.33333 27.5746 4.568C28.0226 4.792 28.348 5.13867 28.5506 5.608H28.6786C28.956 5.128 29.34 4.776 29.8306 4.552C30.3213 4.328 30.8386 4.216 31.3826 4.216ZM36.6661 12.056C36.6661 11.64 36.7728 11.3467 36.9861 11.176C37.1995 11.0053 37.4555 10.92 37.7541 10.92C38.0635 10.92 38.3248 11.0053 38.5381 11.176C38.7515 11.3467 38.8581 11.64 38.8581 12.056C38.8581 12.472 38.7515 12.7707 38.5381 12.952C38.3248 13.1333 38.0635 13.224 37.7541 13.224C37.4555 13.224 37.1995 13.1333 36.9861 12.952C36.7728 12.7707 36.6661 12.472 36.6661 12.056ZM48.3974 13.16C47.3627 13.16 46.5254 12.7867 45.8854 12.04C45.256 11.2933 44.9414 10.184 44.9414 8.712C44.9414 7.22933 45.2614 6.10933 45.9014 5.352C46.5414 4.59467 47.384 4.216 48.4294 4.216C48.8667 4.216 49.2454 4.27467 49.5654 4.392C49.896 4.49867 50.1787 4.648 50.4134 4.84C50.6587 5.032 50.8667 5.24533 51.0374 5.48H51.1334C51.112 5.33067 51.0854 5.11733 51.0534 4.84C51.0214 4.552 51.0054 4.296 51.0054 4.072V0.839999H52.7014V13H51.3734L51.0854 11.848H51.0054C50.8454 12.0933 50.6427 12.3173 50.3974 12.52C50.1627 12.712 49.88 12.8667 49.5494 12.984C49.2187 13.1013 48.8347 13.16 48.3974 13.16ZM48.7974 11.768C49.6294 11.768 50.216 11.5387 50.5574 11.08C50.8987 10.6107 51.0694 9.912 51.0694 8.984V8.728C51.0694 7.71467 50.904 6.94133 50.5734 6.408C50.2534 5.87467 49.656 5.608 48.7814 5.608C48.088 5.608 47.5654 5.89067 47.2134 6.456C46.8614 7.01067 46.6854 7.77333 46.6854 8.744C46.6854 9.71467 46.8614 10.4613 47.2134 10.984C47.5654 11.5067 48.0934 11.768 48.7974 11.768ZM58.7513 4.216C59.5086 4.216 60.1593 4.376 60.7033 4.696C61.2473 5.00533 61.6633 5.45333 61.9513 6.04C62.2499 6.62667 62.3993 7.32 62.3993 8.12V9.048H56.6073C56.6286 9.93333 56.8579 10.6107 57.2953 11.08C57.7433 11.5493 58.3673 11.784 59.1673 11.784C59.7219 11.784 60.2126 11.736 60.6393 11.64C61.0766 11.5333 61.5246 11.3787 61.9833 11.176V12.584C61.5566 12.776 61.1193 12.92 60.6713 13.016C60.2339 13.112 59.7113 13.16 59.1033 13.16C58.2713 13.16 57.5353 12.9947 56.8953 12.664C56.2553 12.3333 55.7539 11.8427 55.3913 11.192C55.0393 10.5307 54.8633 9.72 54.8633 8.76C54.8633 7.78933 55.0233 6.968 55.3433 6.296C55.6739 5.624 56.1273 5.112 56.7033 4.76C57.2899 4.39733 57.9726 4.216 58.7513 4.216ZM58.7513 5.528C58.1433 5.528 57.6526 5.72533 57.2793 6.12C56.9166 6.51467 56.7033 7.07467 56.6393 7.8H60.7033C60.7033 7.352 60.6339 6.95733 60.4953 6.616C60.3566 6.27467 60.1433 6.008 59.8553 5.816C59.5673 5.624 59.1993 5.528 58.7513 5.528ZM73.7438 2.904C73.1784 2.904 72.6718 3.00533 72.2238 3.208C71.7758 3.4 71.3918 3.688 71.0718 4.072C70.7624 4.456 70.5224 4.92 70.3518 5.464C70.1918 6.008 70.1118 6.62133 70.1118 7.304C70.1118 8.2 70.2451 8.97867 70.5118 9.64C70.7784 10.2907 71.1784 10.792 71.7118 11.144C72.2451 11.496 72.9171 11.672 73.7278 11.672C74.2184 11.672 74.6878 11.6293 75.1358 11.544C75.5944 11.448 76.0584 11.3253 76.5278 11.176V12.664C76.0798 12.8347 75.6211 12.9573 75.1518 13.032C74.6824 13.1173 74.1384 13.16 73.5198 13.16C72.3571 13.16 71.3864 12.92 70.6078 12.44C69.8398 11.96 69.2637 11.2773 68.8798 10.392C68.4958 9.50667 68.3038 8.472 68.3038 7.288C68.3038 6.424 68.4211 5.63467 68.6558 4.92C68.9011 4.19467 69.2531 3.57067 69.7118 3.048C70.1704 2.52533 70.7358 2.12533 71.4078 1.848C72.0904 1.56 72.8744 1.416 73.7598 1.416C74.3358 1.416 74.9011 1.48 75.4558 1.608C76.0104 1.72533 76.5118 1.896 76.9598 2.12L76.3198 3.56C75.9464 3.38933 75.5411 3.24 75.1038 3.112C74.6771 2.97333 74.2238 2.904 73.7438 2.904ZM86.3968 8.68C86.3968 9.39467 86.3008 10.0293 86.1088 10.584C85.9168 11.1387 85.6448 11.608 85.2928 11.992C84.9408 12.376 84.5141 12.6693 84.0128 12.872C83.5114 13.064 82.9461 13.16 82.3168 13.16C81.7408 13.16 81.2074 13.064 80.7168 12.872C80.2261 12.6693 79.7994 12.376 79.4368 11.992C79.0848 11.608 78.8074 11.1387 78.6048 10.584C78.4021 10.0293 78.3008 9.38933 78.3008 8.664C78.3008 7.71467 78.4608 6.90933 78.7808 6.248C79.1114 5.58667 79.5808 5.08533 80.1888 4.744C80.8074 4.392 81.5328 4.216 82.3648 4.216C83.1541 4.216 83.8474 4.392 84.4448 4.744C85.0528 5.08533 85.5274 5.58667 85.8688 6.248C86.2208 6.90933 86.3968 7.72 86.3968 8.68ZM80.0448 8.68C80.0448 9.32 80.1248 9.87467 80.2848 10.344C80.4448 10.8027 80.6954 11.1547 81.0368 11.4C81.3781 11.6453 81.8154 11.768 82.3488 11.768C82.8821 11.768 83.3194 11.6453 83.6608 11.4C84.0021 11.1547 84.2528 10.8027 84.4128 10.344C84.5728 9.87467 84.6528 9.32 84.6528 8.68C84.6528 8.01867 84.5674 7.464 84.3968 7.016C84.2368 6.568 83.9861 6.22667 83.6448 5.992C83.3141 5.74667 82.8768 5.624 82.3328 5.624C81.5328 5.624 80.9514 5.89067 80.5888 6.424C80.2261 6.95733 80.0448 7.70933 80.0448 8.68ZM92.9148 4.216C93.9174 4.216 94.6854 4.46667 95.2188 4.968C95.7521 5.46933 96.0188 6.27467 96.0188 7.384V13H94.3388V7.624C94.3388 6.952 94.1948 6.45067 93.9068 6.12C93.6294 5.77867 93.1814 5.608 92.5628 5.608C91.6881 5.608 91.0801 5.86933 90.7388 6.392C90.4081 6.91467 90.2428 7.66667 90.2428 8.648V13H88.5468V4.376H89.8908L90.1308 5.528H90.2268C90.4188 5.22933 90.6534 4.984 90.9308 4.792C91.2081 4.6 91.5174 4.456 91.8588 4.36C92.2001 4.264 92.5521 4.216 92.9148 4.216ZM101.585 13.16C100.55 13.16 99.7129 12.7867 99.0729 12.04C98.4435 11.2933 98.1289 10.184 98.1289 8.712C98.1289 7.22933 98.4489 6.10933 99.0889 5.352C99.7289 4.59467 100.572 4.216 101.617 4.216C102.054 4.216 102.433 4.27467 102.753 4.392C103.084 4.49867 103.366 4.648 103.601 4.84C103.846 5.032 104.054 5.24533 104.225 5.48H104.321C104.3 5.33067 104.273 5.11733 104.241 4.84C104.209 4.552 104.193 4.296 104.193 4.072V0.839999H105.889V13H104.561L104.273 11.848H104.193C104.033 12.0933 103.83 12.3173 103.585 12.52C103.35 12.712 103.068 12.8667 102.737 12.984C102.406 13.1013 102.022 13.16 101.585 13.16ZM101.985 11.768C102.817 11.768 103.404 11.5387 103.745 11.08C104.086 10.6107 104.257 9.912 104.257 8.984V8.728C104.257 7.71467 104.092 6.94133 103.761 6.408C103.441 5.87467 102.844 5.608 101.969 5.608C101.276 5.608 100.753 5.89067 100.401 6.456C100.049 7.01067 99.8729 7.77333 99.8729 8.744C99.8729 9.71467 100.049 10.4613 100.401 10.984C100.753 11.5067 101.281 11.768 101.985 11.768ZM116.147 8.68C116.147 9.39467 116.051 10.0293 115.859 10.584C115.667 11.1387 115.395 11.608 115.043 11.992C114.691 12.376 114.264 12.6693 113.763 12.872C113.261 13.064 112.696 13.16 112.067 13.16C111.491 13.16 110.957 13.064 110.467 12.872C109.976 12.6693 109.549 12.376 109.187 11.992C108.835 11.608 108.557 11.1387 108.355 10.584C108.152 10.0293 108.051 9.38933 108.051 8.664C108.051 7.71467 108.211 6.90933 108.531 6.248C108.861 5.58667 109.331 5.08533 109.939 4.744C110.557 4.392 111.283 4.216 112.115 4.216C112.904 4.216 113.597 4.392 114.195 4.744C114.803 5.08533 115.277 5.58667 115.619 6.248C115.971 6.90933 116.147 7.72 116.147 8.68ZM109.795 8.68C109.795 9.32 109.875 9.87467 110.035 10.344C110.195 10.8027 110.445 11.1547 110.787 11.4C111.128 11.6453 111.565 11.768 112.099 11.768C112.632 11.768 113.069 11.6453 113.411 11.4C113.752 11.1547 114.003 10.8027 114.163 10.344C114.323 9.87467 114.403 9.32 114.403 8.68C114.403 8.01867 114.317 7.464 114.147 7.016C113.987 6.568 113.736 6.22667 113.395 5.992C113.064 5.74667 112.627 5.624 112.083 5.624C111.283 5.624 110.701 5.89067 110.339 6.424C109.976 6.95733 109.795 7.70933 109.795 8.68ZM127.961 4.216C128.931 4.216 129.662 4.46667 130.153 4.968C130.643 5.46933 130.889 6.27467 130.889 7.384V13H129.193V7.608C129.193 6.94667 129.059 6.45067 128.793 6.12C128.537 5.77867 128.131 5.608 127.577 5.608C126.809 5.608 126.259 5.848 125.929 6.328C125.598 6.79733 125.433 7.48 125.433 8.376V13H123.753V7.608C123.753 7.17067 123.689 6.80267 123.561 6.504C123.443 6.20533 123.267 5.98133 123.033 5.832C122.798 5.68267 122.494 5.608 122.121 5.608C121.587 5.608 121.166 5.72533 120.857 5.96C120.547 6.19467 120.323 6.54133 120.185 7C120.057 7.448 119.993 7.99733 119.993 8.648V13H118.297V4.376H119.641L119.881 5.528H119.977C120.158 5.22933 120.377 4.984 120.633 4.792C120.899 4.6 121.193 4.456 121.513 4.36C121.833 4.264 122.163 4.216 122.505 4.216C123.155 4.216 123.705 4.33333 124.153 4.568C124.601 4.792 124.926 5.13867 125.129 5.608H125.257C125.534 5.128 125.918 4.776 126.409 4.552C126.899 4.328 127.417 4.216 127.961 4.216ZM135.18 13H133.484V4.376H135.18V13ZM137.004 0.903999C136.887 1.05333 136.727 1.23467 136.524 1.448C136.332 1.66133 136.114 1.88533 135.868 2.12C135.634 2.344 135.399 2.56267 135.164 2.776C134.93 2.97867 134.716 3.15467 134.524 3.304H133.404V3.112C133.564 2.90933 133.746 2.66933 133.948 2.392C134.151 2.11467 134.348 1.832 134.54 1.544C134.732 1.24533 134.892 0.978666 135.02 0.743999H137.004V0.903999ZM142.212 4.216C143.214 4.216 143.982 4.46667 144.516 4.968C145.049 5.46933 145.316 6.27467 145.316 7.384V13H143.636V7.624C143.636 6.952 143.492 6.45067 143.204 6.12C142.926 5.77867 142.478 5.608 141.86 5.608C140.985 5.608 140.377 5.86933 140.036 6.392C139.705 6.91467 139.54 7.66667 139.54 8.648V13H137.844V4.376H139.188L139.428 5.528H139.524C139.716 5.22933 139.95 4.984 140.228 4.792C140.505 4.6 140.814 4.456 141.156 4.36C141.497 4.264 141.849 4.216 142.212 4.216ZM149.618 4.376V13H147.922V4.376H149.618ZM148.786 1.096C149.042 1.096 149.266 1.17067 149.458 1.32C149.65 1.46933 149.746 1.72 149.746 2.072C149.746 2.41333 149.65 2.664 149.458 2.824C149.266 2.97333 149.042 3.048 148.786 3.048C148.508 3.048 148.274 2.97333 148.082 2.824C147.9 2.664 147.81 2.41333 147.81 2.072C147.81 1.72 147.9 1.46933 148.082 1.32C148.274 1.17067 148.508 1.096 148.786 1.096ZM159.881 8.68C159.881 9.39467 159.785 10.0293 159.593 10.584C159.401 11.1387 159.129 11.608 158.777 11.992C158.425 12.376 157.998 12.6693 157.497 12.872C156.996 13.064 156.43 13.16 155.801 13.16C155.225 13.16 154.692 13.064 154.201 12.872C153.71 12.6693 153.284 12.376 152.921 11.992C152.569 11.608 152.292 11.1387 152.089 10.584C151.886 10.0293 151.785 9.38933 151.785 8.664C151.785 7.71467 151.945 6.90933 152.265 6.248C152.596 5.58667 153.065 5.08533 153.673 4.744C154.292 4.392 155.017 4.216 155.849 4.216C156.638 4.216 157.332 4.392 157.929 4.744C158.537 5.08533 159.012 5.58667 159.353 6.248C159.705 6.90933 159.881 7.72 159.881 8.68ZM153.529 8.68C153.529 9.32 153.609 9.87467 153.769 10.344C153.929 10.8027 154.18 11.1547 154.521 11.4C154.862 11.6453 155.3 11.768 155.833 11.768C156.366 11.768 156.804 11.6453 157.145 11.4C157.486 11.1547 157.737 10.8027 157.897 10.344C158.057 9.87467 158.137 9.32 158.137 8.68C158.137 8.01867 158.052 7.464 157.881 7.016C157.721 6.568 157.47 6.22667 157.129 5.992C156.798 5.74667 156.361 5.624 155.817 5.624C155.017 5.624 154.436 5.89067 154.073 6.424C153.71 6.95733 153.529 7.70933 153.529 8.68ZM167.759 10.568C167.759 11.1333 167.62 11.608 167.343 11.992C167.066 12.376 166.666 12.6693 166.143 12.872C165.62 13.064 164.991 13.16 164.255 13.16C163.647 13.16 163.124 13.112 162.687 13.016C162.26 12.9307 161.866 12.8027 161.503 12.632V11.144C161.887 11.3253 162.33 11.4907 162.831 11.64C163.332 11.7787 163.823 11.848 164.303 11.848C164.943 11.848 165.402 11.7467 165.679 11.544C165.967 11.3413 166.111 11.0693 166.111 10.728C166.111 10.536 166.058 10.3653 165.951 10.216C165.844 10.056 165.642 9.896 165.343 9.736C165.055 9.56533 164.628 9.37333 164.063 9.16C163.519 8.936 163.055 8.71733 162.671 8.504C162.287 8.28 161.994 8.01867 161.791 7.72C161.588 7.41067 161.487 7.016 161.487 6.536C161.487 5.78933 161.786 5.21867 162.383 4.824C162.991 4.41867 163.791 4.216 164.783 4.216C165.306 4.216 165.796 4.26933 166.255 4.376C166.724 4.472 167.178 4.62133 167.615 4.824L167.055 6.12C166.81 6.00267 166.554 5.90667 166.287 5.832C166.031 5.74667 165.77 5.67733 165.503 5.624C165.247 5.57067 164.98 5.544 164.703 5.544C164.191 5.544 163.802 5.624 163.535 5.784C163.268 5.944 163.135 6.168 163.135 6.456C163.135 6.65867 163.194 6.83467 163.311 6.984C163.439 7.13333 163.658 7.28267 163.967 7.432C164.276 7.58133 164.698 7.76267 165.231 7.976C165.764 8.17867 166.218 8.38667 166.591 8.6C166.975 8.81333 167.263 9.07467 167.455 9.384C167.658 9.69333 167.759 10.088 167.759 10.568ZM10.896 35H8.8L3.024 25.768H2.96C2.97067 25.9813 2.98133 26.2107 2.992 26.456C3.01333 26.7013 3.02933 26.9627 3.04 27.24C3.05067 27.5067 3.06133 27.784 3.072 28.072C3.08267 28.3493 3.088 28.632 3.088 28.92V35H1.52V23.576H3.6L9.36 32.76H9.408C9.39733 32.6 9.38667 32.4027 9.376 32.168C9.36533 31.9227 9.35467 31.6613 9.344 31.384C9.344 31.1067 9.33867 30.824 9.328 30.536C9.31733 30.248 9.30667 29.976 9.296 29.72V23.576H10.896V35ZM17.1419 26.216C17.8992 26.216 18.5499 26.376 19.0939 26.696C19.6379 27.0053 20.0539 27.4533 20.3419 28.04C20.6405 28.6267 20.7899 29.32 20.7899 30.12V31.048H14.9979C15.0192 31.9333 15.2485 32.6107 15.6859 33.08C16.1339 33.5493 16.7579 33.784 17.5579 33.784C18.1125 33.784 18.6032 33.736 19.0299 33.64C19.4672 33.5333 19.9152 33.3787 20.3739 33.176V34.584C19.9472 34.776 19.5099 34.92 19.0619 35.016C18.6245 35.112 18.1019 35.16 17.4939 35.16C16.6619 35.16 15.9259 34.9947 15.2859 34.664C14.6459 34.3333 14.1445 33.8427 13.7819 33.192C13.4299 32.5307 13.2539 31.72 13.2539 30.76C13.2539 29.7893 13.4139 28.968 13.7339 28.296C14.0645 27.624 14.5179 27.112 15.0939 26.76C15.6805 26.3973 16.3632 26.216 17.1419 26.216ZM17.1419 27.528C16.5339 27.528 16.0432 27.7253 15.6699 28.12C15.3072 28.5147 15.0939 29.0747 15.0299 29.8H19.0939C19.0939 29.352 19.0245 28.9573 18.8859 28.616C18.7472 28.2747 18.5339 28.008 18.2459 27.816C17.9579 27.624 17.5899 27.528 17.1419 27.528ZM25.8821 26.216C26.4368 26.216 26.9381 26.3227 27.3861 26.536C27.8341 26.7493 28.2128 27.0747 28.5221 27.512H28.6021L28.7941 26.376H30.1701V35.112C30.1701 35.9227 30.0261 36.6053 29.7381 37.16C29.4501 37.7147 29.0075 38.1307 28.4101 38.408C27.8235 38.696 27.0821 38.84 26.1861 38.84C25.5675 38.84 24.9968 38.7973 24.4741 38.712C23.9515 38.6267 23.4715 38.4933 23.0341 38.312V36.824C23.3435 36.9733 23.6688 37.096 24.0101 37.192C24.3515 37.2987 24.7141 37.3733 25.0981 37.416C25.4821 37.4693 25.8768 37.496 26.2821 37.496C26.9861 37.496 27.5301 37.2933 27.9141 36.888C28.2981 36.4933 28.4901 35.9333 28.4901 35.208V34.92C28.4901 34.7813 28.4955 34.6 28.5061 34.376C28.5168 34.1413 28.5275 33.9707 28.5381 33.864H28.4741C28.1755 34.312 27.8075 34.6427 27.3701 34.856C26.9435 35.0587 26.4475 35.16 25.8821 35.16C24.7941 35.16 23.9408 34.7707 23.3221 33.992C22.7141 33.2027 22.4101 32.1093 22.4101 30.712C22.4101 29.7733 22.5488 28.9733 22.8261 28.312C23.1035 27.64 23.4981 27.1227 24.0101 26.76C24.5328 26.3973 25.1568 26.216 25.8821 26.216ZM26.2341 27.624C25.7861 27.624 25.4075 27.7467 25.0981 27.992C24.7888 28.2267 24.5541 28.5733 24.3941 29.032C24.2341 29.4907 24.1541 30.056 24.1541 30.728C24.1541 31.7307 24.3301 32.4933 24.6821 33.016C25.0448 33.5387 25.5728 33.8 26.2661 33.8C26.6715 33.8 27.0128 33.7467 27.2901 33.64C27.5781 33.5333 27.8128 33.368 27.9941 33.144C28.1861 32.92 28.3248 32.6373 28.4101 32.296C28.5061 31.944 28.5541 31.5227 28.5541 31.032V30.712C28.5541 29.976 28.4688 29.384 28.2981 28.936C28.1381 28.4773 27.8875 28.1467 27.5461 27.944C27.2048 27.7307 26.7675 27.624 26.2341 27.624ZM40.428 30.68C40.428 31.3947 40.332 32.0293 40.14 32.584C39.948 33.1387 39.676 33.608 39.324 33.992C38.972 34.376 38.5453 34.6693 38.044 34.872C37.5427 35.064 36.9773 35.16 36.348 35.16C35.772 35.16 35.2387 35.064 34.748 34.872C34.2573 34.6693 33.8307 34.376 33.468 33.992C33.116 33.608 32.8387 33.1387 32.636 32.584C32.4333 32.0293 32.332 31.3893 32.332 30.664C32.332 29.7147 32.492 28.9093 32.812 28.248C33.1427 27.5867 33.612 27.0853 34.22 26.744C34.8387 26.392 35.564 26.216 36.396 26.216C37.1853 26.216 37.8787 26.392 38.476 26.744C39.084 27.0853 39.5587 27.5867 39.9 28.248C40.252 28.9093 40.428 29.72 40.428 30.68ZM34.076 30.68C34.076 31.32 34.156 31.8747 34.316 32.344C34.476 32.8027 34.7267 33.1547 35.068 33.4C35.4093 33.6453 35.8467 33.768 36.38 33.768C36.9133 33.768 37.3507 33.6453 37.692 33.4C38.0333 33.1547 38.284 32.8027 38.444 32.344C38.604 31.8747 38.684 31.32 38.684 30.68C38.684 30.0187 38.5987 29.464 38.428 29.016C38.268 28.568 38.0173 28.2267 37.676 27.992C37.3453 27.7467 36.908 27.624 36.364 27.624C35.564 27.624 34.9827 27.8907 34.62 28.424C34.2573 28.9573 34.076 29.7093 34.076 30.68ZM39.052 22.904C38.9347 23.0533 38.7747 23.2347 38.572 23.448C38.38 23.6613 38.1613 23.8853 37.916 24.12C37.6813 24.344 37.4467 24.5627 37.212 24.776C36.9773 24.9787 36.764 25.1547 36.572 25.304H35.452V25.112C35.612 24.9093 35.7933 24.6693 35.996 24.392C36.1987 24.1147 36.396 23.832 36.588 23.544C36.78 23.2453 36.94 22.9787 37.068 22.744H39.052V22.904ZM46.05 35.16C45.2607 35.16 44.5673 35.0053 43.97 34.696C43.3727 34.3867 42.9087 33.9067 42.578 33.256C42.2473 32.5947 42.082 31.7573 42.082 30.744C42.082 29.6773 42.258 28.8133 42.61 28.152C42.9727 27.4907 43.458 27.0053 44.066 26.696C44.6847 26.376 45.3887 26.216 46.178 26.216C46.658 26.216 47.106 26.2693 47.522 26.376C47.9487 26.472 48.3007 26.584 48.578 26.712L48.066 28.088C47.7673 27.9707 47.4473 27.8693 47.106 27.784C46.7753 27.6987 46.4607 27.656 46.162 27.656C45.6287 27.656 45.186 27.7733 44.834 28.008C44.4927 28.232 44.2367 28.5733 44.066 29.032C43.906 29.48 43.826 30.0453 43.826 30.728C43.826 31.3787 43.9113 31.928 44.082 32.376C44.2527 32.824 44.5033 33.1653 44.834 33.4C45.1753 33.624 45.5967 33.736 46.098 33.736C46.578 33.736 46.9993 33.6827 47.362 33.576C47.7247 33.4693 48.066 33.3307 48.386 33.16V34.632C48.0767 34.8133 47.7407 34.9467 47.378 35.032C47.0153 35.1173 46.5727 35.16 46.05 35.16ZM52.1178 26.376V35H50.4218V26.376H52.1178ZM51.2858 23.096C51.5418 23.096 51.7658 23.1707 51.9578 23.32C52.1498 23.4693 52.2458 23.72 52.2458 24.072C52.2458 24.4133 52.1498 24.664 51.9578 24.824C51.7658 24.9733 51.5418 25.048 51.2858 25.048C51.0084 25.048 50.7738 24.9733 50.5818 24.824C50.4004 24.664 50.3098 24.4133 50.3098 24.072C50.3098 23.72 50.4004 23.4693 50.5818 23.32C50.7738 23.1707 51.0084 23.096 51.2858 23.096ZM62.3811 30.68C62.3811 31.3947 62.2851 32.0293 62.0931 32.584C61.9011 33.1387 61.6291 33.608 61.2771 33.992C60.9251 34.376 60.4985 34.6693 59.9971 34.872C59.4958 35.064 58.9305 35.16 58.3011 35.16C57.7251 35.16 57.1918 35.064 56.7011 34.872C56.2105 34.6693 55.7838 34.376 55.4211 33.992C55.0691 33.608 54.7918 33.1387 54.5891 32.584C54.3865 32.0293 54.2851 31.3893 54.2851 30.664C54.2851 29.7147 54.4451 28.9093 54.7651 28.248C55.0958 27.5867 55.5651 27.0853 56.1731 26.744C56.7918 26.392 57.5171 26.216 58.3491 26.216C59.1385 26.216 59.8318 26.392 60.4291 26.744C61.0371 27.0853 61.5118 27.5867 61.8531 28.248C62.2051 28.9093 62.3811 29.72 62.3811 30.68ZM56.0291 30.68C56.0291 31.32 56.1091 31.8747 56.2691 32.344C56.4291 32.8027 56.6798 33.1547 57.0211 33.4C57.3625 33.6453 57.7998 33.768 58.3331 33.768C58.8665 33.768 59.3038 33.6453 59.6451 33.4C59.9865 33.1547 60.2371 32.8027 60.3971 32.344C60.5571 31.8747 60.6371 31.32 60.6371 30.68C60.6371 30.0187 60.5518 29.464 60.3811 29.016C60.2211 28.568 59.9705 28.2267 59.6291 27.992C59.2985 27.7467 58.8611 27.624 58.3171 27.624C57.5171 27.624 56.9358 27.8907 56.5731 28.424C56.2105 28.9573 56.0291 29.7093 56.0291 30.68ZM70.2591 32.568C70.2591 33.1333 70.1205 33.608 69.8431 33.992C69.5658 34.376 69.1658 34.6693 68.6431 34.872C68.1205 35.064 67.4911 35.16 66.7551 35.16C66.1471 35.16 65.6245 35.112 65.1871 35.016C64.7605 34.9307 64.3658 34.8027 64.0031 34.632V33.144C64.3871 33.3253 64.8298 33.4907 65.3311 33.64C65.8325 33.7787 66.3231 33.848 66.8031 33.848C67.4431 33.848 67.9018 33.7467 68.1791 33.544C68.4671 33.3413 68.6111 33.0693 68.6111 32.728C68.6111 32.536 68.5578 32.3653 68.4511 32.216C68.3445 32.056 68.1418 31.896 67.8431 31.736C67.5551 31.5653 67.1285 31.3733 66.5631 31.16C66.0191 30.936 65.5551 30.7173 65.1711 30.504C64.7871 30.28 64.4938 30.0187 64.2911 29.72C64.0885 29.4107 63.9871 29.016 63.9871 28.536C63.9871 27.7893 64.2858 27.2187 64.8831 26.824C65.4911 26.4187 66.2911 26.216 67.2831 26.216C67.8058 26.216 68.2965 26.2693 68.7551 26.376C69.2245 26.472 69.6778 26.6213 70.1151 26.824L69.5551 28.12C69.3098 28.0027 69.0538 27.9067 68.7871 27.832C68.5311 27.7467 68.2698 27.6773 68.0031 27.624C67.7471 27.5707 67.4805 27.544 67.2031 27.544C66.6911 27.544 66.3018 27.624 66.0351 27.784C65.7685 27.944 65.6351 28.168 65.6351 28.456C65.6351 28.6587 65.6938 28.8347 65.8111 28.984C65.9391 29.1333 66.1578 29.2827 66.4671 29.432C66.7765 29.5813 67.1978 29.7627 67.7311 29.976C68.2645 30.1787 68.7178 30.3867 69.0911 30.6C69.4751 30.8133 69.7631 31.0747 69.9551 31.384C70.1578 31.6933 70.2591 32.088 70.2591 32.568ZM80.1494 35H75.7174V34.008L77.0774 33.608V24.984L75.7174 24.568V23.576H80.1494V24.568L78.8054 24.984V33.608L80.1494 34.008V35ZM91.7576 26.216C92.7283 26.216 93.459 26.4667 93.9496 26.968C94.4403 27.4693 94.6856 28.2747 94.6856 29.384V35H92.9896V29.608C92.9896 28.9467 92.8563 28.4507 92.5896 28.12C92.3336 27.7787 91.9283 27.608 91.3736 27.608C90.6056 27.608 90.0563 27.848 89.7256 28.328C89.395 28.7973 89.2296 29.48 89.2296 30.376V35H87.5496V29.608C87.5496 29.1707 87.4856 28.8027 87.3576 28.504C87.2403 28.2053 87.0643 27.9813 86.8296 27.832C86.595 27.6827 86.291 27.608 85.9176 27.608C85.3843 27.608 84.963 27.7253 84.6536 27.96C84.3443 28.1947 84.1203 28.5413 83.9816 29C83.8536 29.448 83.7896 29.9973 83.7896 30.648V35H82.0936V26.376H83.4376L83.6776 27.528H83.7736C83.955 27.2293 84.1736 26.984 84.4296 26.792C84.6963 26.6 84.9896 26.456 85.3096 26.36C85.6296 26.264 85.9603 26.216 86.3016 26.216C86.9523 26.216 87.5016 26.3333 87.9496 26.568C88.3976 26.792 88.723 27.1387 88.9256 27.608H89.0536C89.331 27.128 89.715 26.776 90.2056 26.552C90.6963 26.328 91.2136 26.216 91.7576 26.216ZM104.881 30.68C104.881 31.3947 104.785 32.0293 104.593 32.584C104.401 33.1387 104.129 33.608 103.777 33.992C103.425 34.376 102.998 34.6693 102.497 34.872C101.996 35.064 101.43 35.16 100.801 35.16C100.225 35.16 99.6918 35.064 99.2011 34.872C98.7105 34.6693 98.2838 34.376 97.9211 33.992C97.5691 33.608 97.2918 33.1387 97.0891 32.584C96.8865 32.0293 96.7851 31.3893 96.7851 30.664C96.7851 29.7147 96.9451 28.9093 97.2651 28.248C97.5958 27.5867 98.0651 27.0853 98.6731 26.744C99.2918 26.392 100.017 26.216 100.849 26.216C101.638 26.216 102.332 26.392 102.929 26.744C103.537 27.0853 104.012 27.5867 104.353 28.248C104.705 28.9093 104.881 29.72 104.881 30.68ZM98.5291 30.68C98.5291 31.32 98.6091 31.8747 98.7691 32.344C98.9291 32.8027 99.1798 33.1547 99.5211 33.4C99.8625 33.6453 100.3 33.768 100.833 33.768C101.366 33.768 101.804 33.6453 102.145 33.4C102.486 33.1547 102.737 32.8027 102.897 32.344C103.057 31.8747 103.137 31.32 103.137 30.68C103.137 30.0187 103.052 29.464 102.881 29.016C102.721 28.568 102.47 28.2267 102.129 27.992C101.798 27.7467 101.361 27.624 100.817 27.624C100.017 27.624 99.4358 27.8907 99.0731 28.424C98.7105 28.9573 98.5291 29.7093 98.5291 30.68ZM108.727 25.768C108.727 26.12 108.716 26.456 108.695 26.776C108.684 27.0853 108.668 27.3307 108.647 27.512H108.727C108.972 27.1493 109.303 26.8453 109.719 26.6C110.135 26.3547 110.674 26.232 111.335 26.232C112.37 26.232 113.202 26.6053 113.831 27.352C114.471 28.0987 114.791 29.208 114.791 30.68C114.791 31.672 114.647 32.4987 114.359 33.16C114.071 33.8213 113.666 34.3227 113.143 34.664C112.62 34.9947 112.012 35.16 111.319 35.16C110.647 35.16 110.108 35.0427 109.703 34.808C109.298 34.5627 108.972 34.2747 108.727 33.944H108.599L108.279 35H107.031V22.84H108.727V25.768ZM110.935 27.608C110.38 27.608 109.943 27.7147 109.623 27.928C109.303 28.1413 109.074 28.4667 108.935 28.904C108.796 29.3413 108.727 29.896 108.727 30.568V30.696C108.727 31.688 108.887 32.4507 109.207 32.984C109.527 33.5067 110.114 33.768 110.967 33.768C111.65 33.768 112.167 33.5013 112.519 32.968C112.871 32.4347 113.047 31.6667 113.047 30.664C113.047 29.6507 112.871 28.888 112.519 28.376C112.167 27.864 111.639 27.608 110.935 27.608ZM118.649 26.376V35H116.953V26.376H118.649ZM117.817 23.096C118.073 23.096 118.297 23.1707 118.489 23.32C118.681 23.4693 118.777 23.72 118.777 24.072C118.777 24.4133 118.681 24.664 118.489 24.824C118.297 24.9733 118.073 25.048 117.817 25.048C117.54 25.048 117.305 24.9733 117.113 24.824C116.932 24.664 116.841 24.4133 116.841 24.072C116.841 23.72 116.932 23.4693 117.113 23.32C117.305 23.1707 117.54 23.096 117.817 23.096ZM123.008 35H121.312V22.84H123.008V35ZM127.368 26.376V35H125.672V26.376H127.368ZM126.536 23.096C126.792 23.096 127.016 23.1707 127.208 23.32C127.4 23.4693 127.496 23.72 127.496 24.072C127.496 24.4133 127.4 24.664 127.208 24.824C127.016 24.9733 126.792 25.048 126.536 25.048C126.258 25.048 126.024 24.9733 125.832 24.824C125.65 24.664 125.56 24.4133 125.56 24.072C125.56 23.72 125.65 23.4693 125.832 23.32C126.024 23.1707 126.258 23.096 126.536 23.096ZM133.375 26.216C134.463 26.216 135.274 26.456 135.807 26.936C136.34 27.4053 136.607 28.1467 136.607 29.16V35H135.407L135.071 33.8H135.007C134.762 34.1093 134.506 34.3653 134.239 34.568C133.983 34.7707 133.684 34.92 133.343 35.016C133.012 35.112 132.607 35.16 132.127 35.16C131.615 35.16 131.151 35.0693 130.735 34.888C130.33 34.696 130.01 34.408 129.775 34.024C129.54 33.6293 129.423 33.1387 129.423 32.552C129.423 31.6773 129.754 31.0107 130.415 30.552C131.087 30.0933 132.106 29.8427 133.471 29.8L134.943 29.752V29.272C134.943 28.632 134.799 28.184 134.511 27.928C134.223 27.672 133.818 27.544 133.295 27.544C132.847 27.544 132.42 27.608 132.015 27.736C131.61 27.864 131.226 28.0187 130.863 28.2L130.319 26.968C130.724 26.7547 131.188 26.5787 131.711 26.44C132.244 26.2907 132.799 26.216 133.375 26.216ZM133.775 30.888C132.794 30.9307 132.111 31.096 131.727 31.384C131.354 31.6613 131.167 32.056 131.167 32.568C131.167 33.016 131.3 33.3413 131.567 33.544C131.844 33.7467 132.191 33.848 132.607 33.848C133.279 33.848 133.834 33.6613 134.271 33.288C134.708 32.9147 134.927 32.3547 134.927 31.608V30.856L133.775 30.888ZM135.967 22.904C135.85 23.0533 135.69 23.2347 135.487 23.448C135.295 23.6613 135.076 23.8853 134.831 24.12C134.596 24.344 134.362 24.5627 134.127 24.776C133.892 24.9787 133.679 25.1547 133.487 25.304H132.367V25.112C132.527 24.9093 132.708 24.6693 132.911 24.392C133.114 24.1147 133.311 23.832 133.503 23.544C133.695 23.2453 133.855 22.9787 133.983 22.744H135.967V22.904ZM143.475 26.216C143.624 26.216 143.789 26.2267 143.971 26.248C144.152 26.2587 144.301 26.2747 144.419 26.296L144.243 27.88C144.125 27.848 143.987 27.8213 143.827 27.8C143.667 27.7787 143.517 27.768 143.379 27.768C143.059 27.768 142.749 27.832 142.451 27.96C142.163 28.0773 141.901 28.2533 141.667 28.488C141.432 28.712 141.245 28.9893 141.107 29.32C140.979 29.6507 140.915 30.0293 140.915 30.456V35H139.219V26.376H140.563L140.787 27.912H140.851C141.032 27.6027 141.251 27.32 141.507 27.064C141.763 26.808 142.056 26.6053 142.387 26.456C142.717 26.296 143.08 26.216 143.475 26.216ZM147.712 26.376V35H146.016V26.376H147.712ZM146.88 23.096C147.136 23.096 147.36 23.1707 147.552 23.32C147.744 23.4693 147.84 23.72 147.84 24.072C147.84 24.4133 147.744 24.664 147.552 24.824C147.36 24.9733 147.136 25.048 146.88 25.048C146.602 25.048 146.368 24.9733 146.176 24.824C145.994 24.664 145.904 24.4133 145.904 24.072C145.904 23.72 145.994 23.4693 146.176 23.32C146.368 23.1707 146.602 23.096 146.88 23.096ZM157.975 30.68C157.975 31.3947 157.879 32.0293 157.687 32.584C157.495 33.1387 157.223 33.608 156.871 33.992C156.519 34.376 156.092 34.6693 155.591 34.872C155.09 35.064 154.524 35.16 153.895 35.16C153.319 35.16 152.786 35.064 152.295 34.872C151.804 34.6693 151.378 34.376 151.015 33.992C150.663 33.608 150.386 33.1387 150.183 32.584C149.98 32.0293 149.879 31.3893 149.879 30.664C149.879 29.7147 150.039 28.9093 150.359 28.248C150.69 27.5867 151.159 27.0853 151.767 26.744C152.386 26.392 153.111 26.216 153.943 26.216C154.732 26.216 155.426 26.392 156.023 26.744C156.631 27.0853 157.106 27.5867 157.447 28.248C157.799 28.9093 157.975 29.72 157.975 30.68ZM151.623 30.68C151.623 31.32 151.703 31.8747 151.863 32.344C152.023 32.8027 152.274 33.1547 152.615 33.4C152.956 33.6453 153.394 33.768 153.927 33.768C154.46 33.768 154.898 33.6453 155.239 33.4C155.58 33.1547 155.831 32.8027 155.991 32.344C156.151 31.8747 156.231 31.32 156.231 30.68C156.231 30.0187 156.146 29.464 155.975 29.016C155.815 28.568 155.564 28.2267 155.223 27.992C154.892 27.7467 154.455 27.624 153.911 27.624C153.111 27.624 152.53 27.8907 152.167 28.424C151.804 28.9573 151.623 29.7093 151.623 30.68ZM165.853 32.568C165.853 33.1333 165.714 33.608 165.437 33.992C165.16 34.376 164.76 34.6693 164.237 34.872C163.714 35.064 163.085 35.16 162.349 35.16C161.741 35.16 161.218 35.112 160.781 35.016C160.354 34.9307 159.96 34.8027 159.597 34.632V33.144C159.981 33.3253 160.424 33.4907 160.925 33.64C161.426 33.7787 161.917 33.848 162.397 33.848C163.037 33.848 163.496 33.7467 163.773 33.544C164.061 33.3413 164.205 33.0693 164.205 32.728C164.205 32.536 164.152 32.3653 164.045 32.216C163.938 32.056 163.736 31.896 163.437 31.736C163.149 31.5653 162.722 31.3733 162.157 31.16C161.613 30.936 161.149 30.7173 160.765 30.504C160.381 30.28 160.088 30.0187 159.885 29.72C159.682 29.4107 159.581 29.016 159.581 28.536C159.581 27.7893 159.88 27.2187 160.477 26.824C161.085 26.4187 161.885 26.216 162.877 26.216C163.4 26.216 163.89 26.2693 164.349 26.376C164.818 26.472 165.272 26.6213 165.709 26.824L165.149 28.12C164.904 28.0027 164.648 27.9067 164.381 27.832C164.125 27.7467 163.864 27.6773 163.597 27.624C163.341 27.5707 163.074 27.544 162.797 27.544C162.285 27.544 161.896 27.624 161.629 27.784C161.362 27.944 161.229 28.168 161.229 28.456C161.229 28.6587 161.288 28.8347 161.405 28.984C161.533 29.1333 161.752 29.2827 162.061 29.432C162.37 29.5813 162.792 29.7627 163.325 29.976C163.858 30.1787 164.312 30.3867 164.685 30.6C165.069 30.8133 165.357 31.0747 165.549 31.384C165.752 31.6933 165.853 32.088 165.853 32.568Z" fill="black"/>
</svg>
