<svg width="271" height="274" viewBox="0 0 271 274" fill="none" xmlns="http://www.w3.org/2000/svg">
<path d="M229.768 55.5309V232.875" stroke="#373435" stroke-width="10" stroke-linecap="round"/>
<path d="M204.016 55.5309L226.633 55.1292" stroke="#373435" stroke-width="10" stroke-linecap="round"/>
<path d="M204.016 55.5309C204.016 43.2581 204.016 30.9853 204.016 18.7124C204.016 16.733 204.016 14.7535 204.016 12.774C204.016 11.4783 204.016 10.1827 204.016 8.88699C204.016 5.41692 203.355 5.89822 199.644 5.48587" stroke="#373435" stroke-width="10" stroke-linecap="round"/>
<path d="M146.197 5H201.101" stroke="#373435" stroke-width="10" stroke-linecap="round"/>
<path d="M144.74 6.94348V41.4405" stroke="#373435" stroke-width="10" stroke-linecap="round"/>
<path d="M105.384 41.4405L144.633 41.1292" stroke="#373435" stroke-width="10" stroke-linecap="round"/>
<path d="M105.384 43.384V58.4461" stroke="#373435" stroke-width="10" stroke-linecap="round"/>
<path d="M66 59.4461L104.633 59.1292" stroke="#373435" stroke-width="10" stroke-linecap="round"/>
<path d="M230.254 92.9432H265.722" stroke="#373435" stroke-width="10" stroke-linecap="round"/>
<path d="M265.633 93.1292L265.722 268.83" stroke="#373435" stroke-width="10" stroke-linecap="round"/>
<g filter="url(#filter0_d_1_103)">
<path d="M15.84 130.64C13.6213 130.64 11.6587 130.469 9.952 130.128C8.288 129.787 6.70933 129.275 5.216 128.592V122.96C6.06933 123.387 7.02933 123.813 8.096 124.24C9.16267 124.667 10.336 125.008 11.616 125.264C12.9387 125.52 14.368 125.648 15.904 125.648C17.3547 125.648 18.72 125.499 20 125.2C21.28 124.859 22.4107 124.347 23.392 123.664C24.3733 122.939 25.1413 122.043 25.696 120.976C26.2933 119.909 26.592 118.651 26.592 117.2C26.592 116.048 26.336 115.024 25.824 114.128C25.3547 113.232 24.5653 112.357 23.456 111.504C22.3467 110.608 20.8747 109.648 19.04 108.624C17.4187 107.643 15.968 106.64 14.688 105.616C13.4507 104.549 12.4693 103.333 11.744 101.968C11.0613 100.56 10.72 98.8747 10.72 96.912C10.72 94.7787 11.104 92.9013 11.872 91.28C12.6827 89.6587 13.7707 88.272 15.136 87.12C16.544 85.968 18.144 85.1147 19.936 84.56C21.7707 83.9627 23.712 83.664 25.76 83.664C28.1493 83.664 30.24 83.8987 32.032 84.368C33.8667 84.8373 35.5947 85.4987 37.216 86.352L35.04 91.216C33.9307 90.6187 32.544 90.064 30.88 89.552C29.216 88.9973 27.5093 88.72 25.76 88.72C24.4373 88.72 23.2213 88.8907 22.112 89.232C21.0453 89.5733 20.1067 90.0853 19.296 90.768C18.528 91.4507 17.9093 92.2827 17.44 93.264C17.0133 94.2027 16.8 95.2907 16.8 96.528C16.8 97.808 17.0347 98.896 17.504 99.792C17.9733 100.645 18.6987 101.435 19.68 102.16C20.6613 102.843 21.8773 103.632 23.328 104.528C25.1627 105.637 26.7627 106.725 28.128 107.792C29.536 108.859 30.624 110.096 31.392 111.504C32.2027 112.912 32.608 114.661 32.608 116.752C32.608 119.056 32.2027 121.083 31.392 122.832C30.624 124.539 29.4933 125.968 28 127.12C26.5493 128.272 24.7787 129.147 22.688 129.744C20.64 130.341 18.3573 130.64 15.84 130.64ZM46.0405 130L54.6165 89.36H42.0725L43.1605 84.304H74.0085L72.9845 89.36H60.4405L51.8005 130H46.0405ZM61.5395 130L86.3715 84.304H92.3875L98.0195 130H92.3875L90.6595 115.792H75.2355L67.8115 130H61.5395ZM77.9875 110.672H90.0835L89.0595 101.072C88.8888 99.4507 88.7182 97.6587 88.5475 95.696C88.4195 93.7333 88.3342 92.0053 88.2915 90.512H88.0995C87.4168 92.1333 86.6275 93.8827 85.7315 95.76C84.8355 97.5947 83.8968 99.4507 82.9155 101.328L77.9875 110.672ZM107.666 130L116.242 89.36H103.698L104.786 84.304H135.634L134.61 89.36H122.066L113.426 130H107.666ZM149.2 130.64C146.043 130.64 143.397 130.149 141.264 129.168C139.173 128.187 137.616 126.757 136.592 124.88C135.568 123.003 135.056 120.699 135.056 117.968C135.056 117.243 135.12 116.347 135.248 115.28C135.376 114.213 135.568 113.083 135.824 111.888L141.712 84.304H147.408L141.456 112.208C141.243 113.189 141.072 114.213 140.944 115.28C140.816 116.347 140.752 117.221 140.752 117.904C140.752 120.293 141.477 122.171 142.928 123.536C144.421 124.901 146.619 125.584 149.52 125.584C152.037 125.584 154.107 125.157 155.728 124.304C157.392 123.408 158.715 122.107 159.696 120.4C160.677 118.651 161.445 116.517 162 114L168.336 84.304H174.032L167.632 114.448C166.949 117.776 165.861 120.656 164.368 123.088C162.917 125.52 160.955 127.397 158.48 128.72C156.005 130 152.912 130.64 149.2 130.64ZM185.153 130.64C182.934 130.64 180.971 130.469 179.265 130.128C177.601 129.787 176.022 129.275 174.529 128.592V122.96C175.382 123.387 176.342 123.813 177.409 124.24C178.475 124.667 179.649 125.008 180.929 125.264C182.251 125.52 183.681 125.648 185.217 125.648C186.667 125.648 188.033 125.499 189.312 125.2C190.593 124.859 191.723 124.347 192.705 123.664C193.686 122.939 194.454 122.043 195.009 120.976C195.606 119.909 195.905 118.651 195.905 117.2C195.905 116.048 195.649 115.024 195.137 114.128C194.667 113.232 193.878 112.357 192.769 111.504C191.659 110.608 190.187 109.648 188.353 108.624C186.731 107.643 185.281 106.64 184.001 105.616C182.763 104.549 181.782 103.333 181.057 101.968C180.374 100.56 180.033 98.8747 180.033 96.912C180.033 94.7787 180.417 92.9013 181.185 91.28C181.995 89.6587 183.083 88.272 184.449 87.12C185.857 85.968 187.457 85.1147 189.249 84.56C191.083 83.9627 193.025 83.664 195.073 83.664C197.462 83.664 199.553 83.8987 201.345 84.368C203.179 84.8373 204.907 85.4987 206.529 86.352L204.353 91.216C203.243 90.6187 201.857 90.064 200.193 89.552C198.529 88.9973 196.822 88.72 195.073 88.72C193.75 88.72 192.534 88.8907 191.425 89.232C190.358 89.5733 189.419 90.0853 188.609 90.768C187.841 91.4507 187.222 92.2827 186.753 93.264C186.326 94.2027 186.113 95.2907 186.113 96.528C186.113 97.808 186.347 98.896 186.817 99.792C187.286 100.645 188.011 101.435 188.993 102.16C189.974 102.843 191.19 103.632 192.641 104.528C194.475 105.637 196.075 106.725 197.441 107.792C198.849 108.859 199.937 110.096 200.705 111.504C201.515 112.912 201.921 114.661 201.921 116.752C201.921 119.056 201.515 121.083 200.705 122.832C199.937 124.539 198.806 125.968 197.313 127.12C195.862 128.272 194.091 129.147 192.001 129.744C189.953 130.341 187.67 130.64 185.153 130.64Z" fill="black"/>
</g>
<g filter="url(#filter1_d_1_103)">
<line x1="4" y1="141" x2="204" y2="141" stroke="#EF1B1B" stroke-width="6"/>
</g>
<defs>
<filter id="filter0_d_1_103" x="1.216" y="83.664" width="209.312" height="54.976" filterUnits="userSpaceOnUse" color-interpolation-filters="sRGB">
<feFlood flood-opacity="0" result="BackgroundImageFix"/>
<feColorMatrix in="SourceAlpha" type="matrix" values="0 0 0 0 0 0 0 0 0 0 0 0 0 0 0 0 0 0 127 0" result="hardAlpha"/>
<feOffset dy="4"/>
<feGaussianBlur stdDeviation="2"/>
<feComposite in2="hardAlpha" operator="out"/>
<feColorMatrix type="matrix" values="0 0 0 0 0 0 0 0 0 0 0 0 0 0 0 0 0 0 0.25 0"/>
<feBlend mode="normal" in2="BackgroundImageFix" result="effect1_dropShadow_1_103"/>
<feBlend mode="normal" in="SourceGraphic" in2="effect1_dropShadow_1_103" result="shape"/>
</filter>
<filter id="filter1_d_1_103" x="0" y="138" width="208" height="14" filterUnits="userSpaceOnUse" color-interpolation-filters="sRGB">
<feFlood flood-opacity="0" result="BackgroundImageFix"/>
<feColorMatrix in="SourceAlpha" type="matrix" values="0 0 0 0 0 0 0 0 0 0 0 0 0 0 0 0 0 0 127 0" result="hardAlpha"/>
<feOffset dy="4"/>
<feGaussianBlur stdDeviation="2"/>
<feComposite in2="hardAlpha" operator="out"/>
<feColorMatrix type="matrix" values="0 0 0 0 0 0 0 0 0 0 0 0 0 0 0 0 0 0 0.25 0"/>
<feBlend mode="normal" in2="BackgroundImageFix" result="effect1_dropShadow_1_103"/>
<feBlend mode="normal" in="SourceGraphic" in2="effect1_dropShadow_1_103" result="shape"/>
</filter>
</defs>
</svg>
