<svg width="271" height="274" viewBox="0 0 271 274" fill="none" xmlns="http://www.w3.org/2000/svg">
<path d="M229.768 55.5309V232.875" stroke="#373435" stroke-width="10" stroke-linecap="round"/>
<path d="M204.016 55.5309L226.633 55.1292" stroke="#373435" stroke-width="10" stroke-linecap="round"/>
<path d="M204.016 55.5309C204.016 43.2581 204.016 30.9853 204.016 18.7124C204.016 16.733 204.016 14.7535 204.016 12.774C204.016 11.4783 204.016 10.1827 204.016 8.88699C204.016 5.41692 203.355 5.89822 199.644 5.48587" stroke="#373435" stroke-width="10" stroke-linecap="round"/>
<path d="M146.197 5H201.101" stroke="#373435" stroke-width="10" stroke-linecap="round"/>
<path d="M144.74 6.94348V41.4405" stroke="#373435" stroke-width="10" stroke-linecap="round"/>
<path d="M105.384 41.4405L144.633 41.1292" stroke="#373435" stroke-width="10" stroke-linecap="round"/>
<path d="M105.384 43.384V58.4461" stroke="#373435" stroke-width="10" stroke-linecap="round"/>
<path d="M66 59.4461L104.633 59.1292" stroke="#373435" stroke-width="10" stroke-linecap="round"/>
<path d="M230.254 92.9432H265.722" stroke="#373435" stroke-width="10" stroke-linecap="round"/>
<path d="M265.633 93.1292L265.722 268.83" stroke="#373435" stroke-width="10" stroke-linecap="round"/>
<g filter="url(#filter0_d_1_105)">
<path d="M15.84 130.64C13.6213 130.64 11.6587 130.469 9.952 130.128C8.288 129.787 6.70933 129.275 5.216 128.592V122.96C6.06933 123.387 7.02933 123.813 8.096 124.24C9.16267 124.667 10.336 125.008 11.616 125.264C12.9387 125.52 14.368 125.648 15.904 125.648C17.3547 125.648 18.72 125.499 20 125.2C21.28 124.859 22.4107 124.347 23.392 123.664C24.3733 122.939 25.1413 122.043 25.696 120.976C26.2933 119.909 26.592 118.651 26.592 117.2C26.592 116.048 26.336 115.024 25.824 114.128C25.3547 113.232 24.5653 112.357 23.456 111.504C22.3467 110.608 20.8747 109.648 19.04 108.624C17.4187 107.643 15.968 106.64 14.688 105.616C13.4507 104.549 12.4693 103.333 11.744 101.968C11.0613 100.56 10.72 98.8747 10.72 96.912C10.72 94.7787 11.104 92.9013 11.872 91.28C12.6827 89.6587 13.7707 88.272 15.136 87.12C16.544 85.968 18.144 85.1147 19.936 84.56C21.7707 83.9627 23.712 83.664 25.76 83.664C28.1493 83.664 30.24 83.8987 32.032 84.368C33.8667 84.8373 35.5947 85.4987 37.216 86.352L35.04 91.216C33.9307 90.6187 32.544 90.064 30.88 89.552C29.216 88.9973 27.5093 88.72 25.76 88.72C24.4373 88.72 23.2213 88.8907 22.112 89.232C21.0453 89.5733 20.1067 90.0853 19.296 90.768C18.528 91.4507 17.9093 92.2827 17.44 93.264C17.0133 94.2027 16.8 95.2907 16.8 96.528C16.8 97.808 17.0347 98.896 17.504 99.792C17.9733 100.645 18.6987 101.435 19.68 102.16C20.6613 102.843 21.8773 103.632 23.328 104.528C25.1627 105.637 26.7627 106.725 28.128 107.792C29.536 108.859 30.624 110.096 31.392 111.504C32.2027 112.912 32.608 114.661 32.608 116.752C32.608 119.056 32.2027 121.083 31.392 122.832C30.624 124.539 29.4933 125.968 28 127.12C26.5493 128.272 24.7787 129.147 22.688 129.744C20.64 130.341 18.3573 130.64 15.84 130.64ZM46.0405 130L54.6165 89.36H42.0725L43.1605 84.304H74.0085L72.9845 89.36H60.4405L51.8005 130H46.0405ZM61.5395 130L86.3715 84.304H92.3875L98.0195 130H92.3875L90.6595 115.792H75.2355L67.8115 130H61.5395ZM77.9875 110.672H90.0835L89.0595 101.072C88.8888 99.4507 88.7182 97.6587 88.5475 95.696C88.4195 93.7333 88.3342 92.0053 88.2915 90.512H88.0995C87.4168 92.1333 86.6275 93.8827 85.7315 95.76C84.8355 97.5947 83.8968 99.4507 82.9155 101.328L77.9875 110.672ZM107.666 130L116.242 89.36H103.698L104.786 84.304H135.634L134.61 89.36H122.066L113.426 130H107.666ZM149.2 130.64C146.043 130.64 143.397 130.149 141.264 129.168C139.173 128.187 137.616 126.757 136.592 124.88C135.568 123.003 135.056 120.699 135.056 117.968C135.056 117.243 135.12 116.347 135.248 115.28C135.376 114.213 135.568 113.083 135.824 111.888L141.712 84.304H147.408L141.456 112.208C141.243 113.189 141.072 114.213 140.944 115.28C140.816 116.347 140.752 117.221 140.752 117.904C140.752 120.293 141.477 122.171 142.928 123.536C144.421 124.901 146.619 125.584 149.52 125.584C152.037 125.584 154.107 125.157 155.728 124.304C157.392 123.408 158.715 122.107 159.696 120.4C160.677 118.651 161.445 116.517 162 114L168.336 84.304H174.032L167.632 114.448C166.949 117.776 165.861 120.656 164.368 123.088C162.917 125.52 160.955 127.397 158.48 128.72C156.005 130 152.912 130.64 149.2 130.64ZM185.153 130.64C182.934 130.64 180.971 130.469 179.265 130.128C177.601 129.787 176.022 129.275 174.529 128.592V122.96C175.382 123.387 176.342 123.813 177.409 124.24C178.475 124.667 179.649 125.008 180.929 125.264C182.251 125.52 183.681 125.648 185.217 125.648C186.667 125.648 188.033 125.499 189.312 125.2C190.593 124.859 191.723 124.347 192.705 123.664C193.686 122.939 194.454 122.043 195.009 120.976C195.606 119.909 195.905 118.651 195.905 117.2C195.905 116.048 195.649 115.024 195.137 114.128C194.667 113.232 193.878 112.357 192.769 111.504C191.659 110.608 190.187 109.648 188.353 108.624C186.731 107.643 185.281 106.64 184.001 105.616C182.763 104.549 181.782 103.333 181.057 101.968C180.374 100.56 180.033 98.8747 180.033 96.912C180.033 94.7787 180.417 92.9013 181.185 91.28C181.995 89.6587 183.083 88.272 184.449 87.12C185.857 85.968 187.457 85.1147 189.249 84.56C191.083 83.9627 193.025 83.664 195.073 83.664C197.462 83.664 199.553 83.8987 201.345 84.368C203.179 84.8373 204.907 85.4987 206.529 86.352L204.353 91.216C203.243 90.6187 201.857 90.064 200.193 89.552C198.529 88.9973 196.822 88.72 195.073 88.72C193.75 88.72 192.534 88.8907 191.425 89.232C190.358 89.5733 189.419 90.0853 188.609 90.768C187.841 91.4507 187.222 92.2827 186.753 93.264C186.326 94.2027 186.113 95.2907 186.113 96.528C186.113 97.808 186.347 98.896 186.817 99.792C187.286 100.645 188.011 101.435 188.993 102.16C189.974 102.843 191.19 103.632 192.641 104.528C194.475 105.637 196.075 106.725 197.441 107.792C198.849 108.859 199.937 110.096 200.705 111.504C201.515 112.912 201.921 114.661 201.921 116.752C201.921 119.056 201.515 121.083 200.705 122.832C199.937 124.539 198.806 125.968 197.313 127.12C195.862 128.272 194.091 129.147 192.001 129.744C189.953 130.341 187.67 130.64 185.153 130.64Z" fill="black"/>
</g>
<g filter="url(#filter1_d_1_105)">
<line x1="4" y1="141" x2="204" y2="141" stroke="#EF1B1B" stroke-width="6"/>
</g>
<path d="M14.8 187L13.28 182.88H7.76L6.24 187H4L9.42 172.66H11.66L17.06 187H14.8ZM11.24 176.98C11.2 176.833 11.1267 176.613 11.02 176.32C10.9267 176.013 10.8333 175.707 10.74 175.4C10.6467 175.08 10.5733 174.82 10.52 174.62C10.4533 174.887 10.3733 175.18 10.28 175.5C10.2 175.807 10.12 176.093 10.04 176.36C9.96 176.613 9.89333 176.82 9.84 176.98L8.4 181H12.68L11.24 176.98ZM22.4459 187.2C21.1526 187.2 20.1059 186.733 19.3059 185.8C18.5193 184.867 18.1259 183.48 18.1259 181.64C18.1259 179.787 18.5259 178.387 19.3259 177.44C20.1259 176.493 21.1793 176.02 22.4859 176.02C23.0326 176.02 23.5059 176.093 23.9059 176.24C24.3193 176.373 24.6726 176.56 24.9659 176.8C25.2726 177.04 25.5326 177.307 25.7459 177.6H25.8659C25.8393 177.413 25.8059 177.147 25.7659 176.8C25.7259 176.44 25.7059 176.12 25.7059 175.84V171.8H27.8259V187H26.1659L25.8059 185.56H25.7059C25.5059 185.867 25.2526 186.147 24.9459 186.4C24.6526 186.64 24.2993 186.833 23.8859 186.98C23.4726 187.127 22.9926 187.2 22.4459 187.2ZM22.9459 185.46C23.9859 185.46 24.7193 185.173 25.1459 184.6C25.5726 184.013 25.7859 183.14 25.7859 181.98V181.66C25.7859 180.393 25.5793 179.427 25.1659 178.76C24.7659 178.093 24.0193 177.76 22.9259 177.76C22.0593 177.76 21.4059 178.113 20.9659 178.82C20.5259 179.513 20.3059 180.467 20.3059 181.68C20.3059 182.893 20.5259 183.827 20.9659 184.48C21.4059 185.133 22.0659 185.46 22.9459 185.46ZM43.2283 176.02C44.4416 176.02 45.3549 176.333 45.9683 176.96C46.5816 177.587 46.8883 178.593 46.8883 179.98V187H44.7683V180.26C44.7683 179.433 44.6016 178.813 44.2683 178.4C43.9483 177.973 43.4416 177.76 42.7483 177.76C41.7883 177.76 41.1016 178.06 40.6883 178.66C40.2749 179.247 40.0683 180.1 40.0683 181.22V187H37.9683V180.26C37.9683 179.713 37.8883 179.253 37.7283 178.88C37.5816 178.507 37.3616 178.227 37.0683 178.04C36.7749 177.853 36.3949 177.76 35.9283 177.76C35.2616 177.76 34.7349 177.907 34.3483 178.2C33.9616 178.493 33.6816 178.927 33.5083 179.5C33.3483 180.06 33.2683 180.747 33.2683 181.56V187H31.1483V176.22H32.8283L33.1283 177.66H33.2483C33.4749 177.287 33.7483 176.98 34.0683 176.74C34.4016 176.5 34.7683 176.32 35.1683 176.2C35.5683 176.08 35.9816 176.02 36.4083 176.02C37.2216 176.02 37.9083 176.167 38.4683 176.46C39.0283 176.74 39.4349 177.173 39.6883 177.76H39.8483C40.1949 177.16 40.6749 176.72 41.2883 176.44C41.9016 176.16 42.5483 176.02 43.2283 176.02ZM49.8327 185.82C49.8327 185.3 49.966 184.933 50.2327 184.72C50.4993 184.507 50.8193 184.4 51.1927 184.4C51.5793 184.4 51.906 184.507 52.1727 184.72C52.4393 184.933 52.5727 185.3 52.5727 185.82C52.5727 186.34 52.4393 186.713 52.1727 186.94C51.906 187.167 51.5793 187.28 51.1927 187.28C50.8193 187.28 50.4993 187.167 50.2327 186.94C49.966 186.713 49.8327 186.34 49.8327 185.82ZM64.4967 187.2C63.2034 187.2 62.1567 186.733 61.3567 185.8C60.5701 184.867 60.1767 183.48 60.1767 181.64C60.1767 179.787 60.5767 178.387 61.3767 177.44C62.1767 176.493 63.2301 176.02 64.5367 176.02C65.0834 176.02 65.5567 176.093 65.9567 176.24C66.3701 176.373 66.7234 176.56 67.0167 176.8C67.3234 177.04 67.5834 177.307 67.7967 177.6H67.9167C67.8901 177.413 67.8567 177.147 67.8167 176.8C67.7767 176.44 67.7567 176.12 67.7567 175.84V171.8H69.8767V187H68.2167L67.8567 185.56H67.7567C67.5567 185.867 67.3034 186.147 66.9967 186.4C66.7034 186.64 66.3501 186.833 65.9367 186.98C65.5234 187.127 65.0434 187.2 64.4967 187.2ZM64.9967 185.46C66.0367 185.46 66.7701 185.173 67.1967 184.6C67.6234 184.013 67.8367 183.14 67.8367 181.98V181.66C67.8367 180.393 67.6301 179.427 67.2167 178.76C66.8167 178.093 66.0701 177.76 64.9767 177.76C64.1101 177.76 63.4567 178.113 63.0167 178.82C62.5767 179.513 62.3567 180.467 62.3567 181.68C62.3567 182.893 62.5767 183.827 63.0167 184.48C63.4567 185.133 64.1167 185.46 64.9967 185.46ZM77.4391 176.02C78.3857 176.02 79.1991 176.22 79.8791 176.62C80.5591 177.007 81.0791 177.567 81.4391 178.3C81.8124 179.033 81.9991 179.9 81.9991 180.9V182.06H74.7591C74.7857 183.167 75.0724 184.013 75.6191 184.6C76.1791 185.187 76.9591 185.48 77.9591 185.48C78.6524 185.48 79.2657 185.42 79.7991 185.3C80.3457 185.167 80.9057 184.973 81.4791 184.72V186.48C80.9457 186.72 80.3991 186.9 79.8391 187.02C79.2924 187.14 78.6391 187.2 77.8791 187.2C76.8391 187.2 75.9191 186.993 75.1191 186.58C74.3191 186.167 73.6924 185.553 73.2391 184.74C72.7991 183.913 72.5791 182.9 72.5791 181.7C72.5791 180.487 72.7791 179.46 73.1791 178.62C73.5924 177.78 74.1591 177.14 74.8791 176.7C75.6124 176.247 76.4657 176.02 77.4391 176.02ZM77.4391 177.66C76.6791 177.66 76.0657 177.907 75.5991 178.4C75.1457 178.893 74.8791 179.593 74.7991 180.5H79.8791C79.8791 179.94 79.7924 179.447 79.6191 179.02C79.4457 178.593 79.1791 178.26 78.8191 178.02C78.4591 177.78 77.9991 177.66 77.4391 177.66ZM96.1797 174.38C95.473 174.38 94.8397 174.507 94.2797 174.76C93.7197 175 93.2397 175.36 92.8397 175.84C92.453 176.32 92.153 176.9 91.9397 177.58C91.7397 178.26 91.6397 179.027 91.6397 179.88C91.6397 181 91.8064 181.973 92.1397 182.8C92.473 183.613 92.973 184.24 93.6397 184.68C94.3064 185.12 95.1464 185.34 96.1597 185.34C96.773 185.34 97.3597 185.287 97.9197 185.18C98.493 185.06 99.073 184.907 99.6597 184.72V186.58C99.0997 186.793 98.5264 186.947 97.9397 187.04C97.353 187.147 96.673 187.2 95.8997 187.2C94.4464 187.2 93.233 186.9 92.2597 186.3C91.2997 185.7 90.5797 184.847 90.0997 183.74C89.6197 182.633 89.3797 181.34 89.3797 179.86C89.3797 178.78 89.5264 177.793 89.8197 176.9C90.1264 175.993 90.5664 175.213 91.1397 174.56C91.713 173.907 92.4197 173.407 93.2597 173.06C94.113 172.7 95.093 172.52 96.1997 172.52C96.9197 172.52 97.6264 172.6 98.3197 172.76C99.013 172.907 99.6397 173.12 100.2 173.4L99.3997 175.2C98.933 174.987 98.4264 174.8 97.8797 174.64C97.3464 174.467 96.7797 174.38 96.1797 174.38ZM111.996 181.6C111.996 182.493 111.876 183.287 111.636 183.98C111.396 184.673 111.056 185.26 110.616 185.74C110.176 186.22 109.643 186.587 109.016 186.84C108.389 187.08 107.683 187.2 106.896 187.2C106.176 187.2 105.509 187.08 104.896 186.84C104.283 186.587 103.749 186.22 103.296 185.74C102.856 185.26 102.509 184.673 102.256 183.98C102.003 183.287 101.876 182.487 101.876 181.58C101.876 180.393 102.076 179.387 102.476 178.56C102.889 177.733 103.476 177.107 104.236 176.68C105.009 176.24 105.916 176.02 106.956 176.02C107.943 176.02 108.809 176.24 109.556 176.68C110.316 177.107 110.909 177.733 111.336 178.56C111.776 179.387 111.996 180.4 111.996 181.6ZM104.056 181.6C104.056 182.4 104.156 183.093 104.356 183.68C104.556 184.253 104.869 184.693 105.296 185C105.723 185.307 106.269 185.46 106.936 185.46C107.603 185.46 108.149 185.307 108.576 185C109.003 184.693 109.316 184.253 109.516 183.68C109.716 183.093 109.816 182.4 109.816 181.6C109.816 180.773 109.709 180.08 109.496 179.52C109.296 178.96 108.983 178.533 108.556 178.24C108.143 177.933 107.596 177.78 106.916 177.78C105.916 177.78 105.189 178.113 104.736 178.78C104.283 179.447 104.056 180.387 104.056 181.6ZM120.143 176.02C121.397 176.02 122.357 176.333 123.023 176.96C123.69 177.587 124.023 178.593 124.023 179.98V187H121.923V180.28C121.923 179.44 121.743 178.813 121.383 178.4C121.037 177.973 120.477 177.76 119.703 177.76C118.61 177.76 117.85 178.087 117.423 178.74C117.01 179.393 116.803 180.333 116.803 181.56V187H114.683V176.22H116.363L116.663 177.66H116.783C117.023 177.287 117.317 176.98 117.663 176.74C118.01 176.5 118.397 176.32 118.823 176.2C119.25 176.08 119.69 176.02 120.143 176.02ZM130.981 187.2C129.688 187.2 128.641 186.733 127.841 185.8C127.054 184.867 126.661 183.48 126.661 181.64C126.661 179.787 127.061 178.387 127.861 177.44C128.661 176.493 129.714 176.02 131.021 176.02C131.568 176.02 132.041 176.093 132.441 176.24C132.854 176.373 133.208 176.56 133.501 176.8C133.808 177.04 134.068 177.307 134.281 177.6H134.401C134.374 177.413 134.341 177.147 134.301 176.8C134.261 176.44 134.241 176.12 134.241 175.84V171.8H136.361V187H134.701L134.341 185.56H134.241C134.041 185.867 133.788 186.147 133.481 186.4C133.188 186.64 132.834 186.833 132.421 186.98C132.008 187.127 131.528 187.2 130.981 187.2ZM131.481 185.46C132.521 185.46 133.254 185.173 133.681 184.6C134.108 184.013 134.321 183.14 134.321 181.98V181.66C134.321 180.393 134.114 179.427 133.701 178.76C133.301 178.093 132.554 177.76 131.461 177.76C130.594 177.76 129.941 178.113 129.501 178.82C129.061 179.513 128.841 180.467 128.841 181.68C128.841 182.893 129.061 183.827 129.501 184.48C129.941 185.133 130.601 185.46 131.481 185.46ZM149.183 181.6C149.183 182.493 149.063 183.287 148.823 183.98C148.583 184.673 148.243 185.26 147.803 185.74C147.363 186.22 146.83 186.587 146.203 186.84C145.577 187.08 144.87 187.2 144.083 187.2C143.363 187.2 142.697 187.08 142.083 186.84C141.47 186.587 140.937 186.22 140.483 185.74C140.043 185.26 139.697 184.673 139.443 183.98C139.19 183.287 139.063 182.487 139.063 181.58C139.063 180.393 139.263 179.387 139.663 178.56C140.077 177.733 140.663 177.107 141.423 176.68C142.197 176.24 143.103 176.02 144.143 176.02C145.13 176.02 145.997 176.24 146.743 176.68C147.503 177.107 148.097 177.733 148.523 178.56C148.963 179.387 149.183 180.4 149.183 181.6ZM141.243 181.6C141.243 182.4 141.343 183.093 141.543 183.68C141.743 184.253 142.057 184.693 142.483 185C142.91 185.307 143.457 185.46 144.123 185.46C144.79 185.46 145.337 185.307 145.763 185C146.19 184.693 146.503 184.253 146.703 183.68C146.903 183.093 147.003 182.4 147.003 181.6C147.003 180.773 146.897 180.08 146.683 179.52C146.483 178.96 146.17 178.533 145.743 178.24C145.33 177.933 144.783 177.78 144.103 177.78C143.103 177.78 142.377 178.113 141.923 178.78C141.47 179.447 141.243 180.387 141.243 181.6ZM163.951 176.02C165.164 176.02 166.078 176.333 166.691 176.96C167.304 177.587 167.611 178.593 167.611 179.98V187H165.491V180.26C165.491 179.433 165.324 178.813 164.991 178.4C164.671 177.973 164.164 177.76 163.471 177.76C162.511 177.76 161.824 178.06 161.411 178.66C160.998 179.247 160.791 180.1 160.791 181.22V187H158.691V180.26C158.691 179.713 158.611 179.253 158.451 178.88C158.304 178.507 158.084 178.227 157.791 178.04C157.498 177.853 157.118 177.76 156.651 177.76C155.984 177.76 155.458 177.907 155.071 178.2C154.684 178.493 154.404 178.927 154.231 179.5C154.071 180.06 153.991 180.747 153.991 181.56V187H151.871V176.22H153.551L153.851 177.66H153.971C154.198 177.287 154.471 176.98 154.791 176.74C155.124 176.5 155.491 176.32 155.891 176.2C156.291 176.08 156.704 176.02 157.131 176.02C157.944 176.02 158.631 176.167 159.191 176.46C159.751 176.74 160.158 177.173 160.411 177.76H160.571C160.918 177.16 161.398 176.72 162.011 176.44C162.624 176.16 163.271 176.02 163.951 176.02ZM172.975 187H170.855V176.22H172.975V187ZM175.255 171.88C175.109 172.067 174.909 172.293 174.655 172.56C174.415 172.827 174.142 173.107 173.835 173.4C173.542 173.68 173.249 173.953 172.955 174.22C172.662 174.473 172.395 174.693 172.155 174.88H170.755V174.64C170.955 174.387 171.182 174.087 171.435 173.74C171.689 173.393 171.935 173.04 172.175 172.68C172.415 172.307 172.615 171.973 172.775 171.68H175.255V171.88ZM181.765 176.02C183.018 176.02 183.978 176.333 184.645 176.96C185.311 177.587 185.645 178.593 185.645 179.98V187H183.545V180.28C183.545 179.44 183.365 178.813 183.005 178.4C182.658 177.973 182.098 177.76 181.325 177.76C180.231 177.76 179.471 178.087 179.045 178.74C178.631 179.393 178.425 180.333 178.425 181.56V187H176.305V176.22H177.985L178.285 177.66H178.405C178.645 177.287 178.938 176.98 179.285 176.74C179.631 176.5 180.018 176.32 180.445 176.2C180.871 176.08 181.311 176.02 181.765 176.02ZM191.022 176.22V187H188.902V176.22H191.022ZM189.982 172.12C190.302 172.12 190.582 172.213 190.822 172.4C191.062 172.587 191.182 172.9 191.182 173.34C191.182 173.767 191.062 174.08 190.822 174.28C190.582 174.467 190.302 174.56 189.982 174.56C189.636 174.56 189.342 174.467 189.102 174.28C188.876 174.08 188.762 173.767 188.762 173.34C188.762 172.9 188.876 172.587 189.102 172.4C189.342 172.213 189.636 172.12 189.982 172.12ZM203.851 181.6C203.851 182.493 203.731 183.287 203.491 183.98C203.251 184.673 202.911 185.26 202.471 185.74C202.031 186.22 201.498 186.587 200.871 186.84C200.245 187.08 199.538 187.2 198.751 187.2C198.031 187.2 197.365 187.08 196.751 186.84C196.138 186.587 195.605 186.22 195.151 185.74C194.711 185.26 194.365 184.673 194.111 183.98C193.858 183.287 193.731 182.487 193.731 181.58C193.731 180.393 193.931 179.387 194.331 178.56C194.745 177.733 195.331 177.107 196.091 176.68C196.865 176.24 197.771 176.02 198.811 176.02C199.798 176.02 200.665 176.24 201.411 176.68C202.171 177.107 202.765 177.733 203.191 178.56C203.631 179.387 203.851 180.4 203.851 181.6ZM195.911 181.6C195.911 182.4 196.011 183.093 196.211 183.68C196.411 184.253 196.725 184.693 197.151 185C197.578 185.307 198.125 185.46 198.791 185.46C199.458 185.46 200.005 185.307 200.431 185C200.858 184.693 201.171 184.253 201.371 183.68C201.571 183.093 201.671 182.4 201.671 181.6C201.671 180.773 201.565 180.08 201.351 179.52C201.151 178.96 200.838 178.533 200.411 178.24C199.998 177.933 199.451 177.78 198.771 177.78C197.771 177.78 197.045 178.113 196.591 178.78C196.138 179.447 195.911 180.387 195.911 181.6ZM213.699 183.96C213.699 184.667 213.526 185.26 213.179 185.74C212.832 186.22 212.332 186.587 211.679 186.84C211.026 187.08 210.239 187.2 209.319 187.2C208.559 187.2 207.906 187.14 207.359 187.02C206.826 186.913 206.332 186.753 205.879 186.54V184.68C206.359 184.907 206.912 185.113 207.539 185.3C208.166 185.473 208.779 185.56 209.379 185.56C210.179 185.56 210.752 185.433 211.099 185.18C211.459 184.927 211.639 184.587 211.639 184.16C211.639 183.92 211.572 183.707 211.439 183.52C211.306 183.32 211.052 183.12 210.679 182.92C210.319 182.707 209.786 182.467 209.079 182.2C208.399 181.92 207.819 181.647 207.339 181.38C206.859 181.1 206.492 180.773 206.239 180.4C205.986 180.013 205.859 179.52 205.859 178.92C205.859 177.987 206.232 177.273 206.979 176.78C207.739 176.273 208.739 176.02 209.979 176.02C210.632 176.02 211.246 176.087 211.819 176.22C212.406 176.34 212.972 176.527 213.519 176.78L212.819 178.4C212.512 178.253 212.192 178.133 211.859 178.04C211.539 177.933 211.212 177.847 210.879 177.78C210.559 177.713 210.226 177.68 209.879 177.68C209.239 177.68 208.752 177.78 208.419 177.98C208.086 178.18 207.919 178.46 207.919 178.82C207.919 179.073 207.992 179.293 208.139 179.48C208.299 179.667 208.572 179.853 208.959 180.04C209.346 180.227 209.872 180.453 210.539 180.72C211.206 180.973 211.772 181.233 212.239 181.5C212.719 181.767 213.079 182.093 213.319 182.48C213.572 182.867 213.699 183.36 213.699 183.96Z" fill="black"/>
<defs>
<filter id="filter0_d_1_105" x="1.216" y="83.664" width="209.312" height="54.976" filterUnits="userSpaceOnUse" color-interpolation-filters="sRGB">
<feFlood flood-opacity="0" result="BackgroundImageFix"/>
<feColorMatrix in="SourceAlpha" type="matrix" values="0 0 0 0 0 0 0 0 0 0 0 0 0 0 0 0 0 0 127 0" result="hardAlpha"/>
<feOffset dy="4"/>
<feGaussianBlur stdDeviation="2"/>
<feComposite in2="hardAlpha" operator="out"/>
<feColorMatrix type="matrix" values="0 0 0 0 0 0 0 0 0 0 0 0 0 0 0 0 0 0 0.25 0"/>
<feBlend mode="normal" in2="BackgroundImageFix" result="effect1_dropShadow_1_105"/>
<feBlend mode="normal" in="SourceGraphic" in2="effect1_dropShadow_1_105" result="shape"/>
</filter>
<filter id="filter1_d_1_105" x="0" y="138" width="208" height="14" filterUnits="userSpaceOnUse" color-interpolation-filters="sRGB">
<feFlood flood-opacity="0" result="BackgroundImageFix"/>
<feColorMatrix in="SourceAlpha" type="matrix" values="0 0 0 0 0 0 0 0 0 0 0 0 0 0 0 0 0 0 127 0" result="hardAlpha"/>
<feOffset dy="4"/>
<feGaussianBlur stdDeviation="2"/>
<feComposite in2="hardAlpha" operator="out"/>
<feColorMatrix type="matrix" values="0 0 0 0 0 0 0 0 0 0 0 0 0 0 0 0 0 0 0.25 0"/>
<feBlend mode="normal" in2="BackgroundImageFix" result="effect1_dropShadow_1_105"/>
<feBlend mode="normal" in="SourceGraphic" in2="effect1_dropShadow_1_105" result="shape"/>
</filter>
</defs>
</svg>
