<svg width="210" height="276" viewBox="0 0 210 276" fill="none" xmlns="http://www.w3.org/2000/svg">
<path d="M10.31 58.2607C60.0241 155.203 156.362 165.085 141.917 273.015" stroke="#C42626" stroke-width="10"/>
<path d="M168.768 55.5309V232.875" stroke="#373435" stroke-width="10" stroke-linecap="round"/>
<path d="M143.016 55.5309L165.633 55.1292" stroke="#373435" stroke-width="10" stroke-linecap="round"/>
<path d="M143.016 55.5309C143.016 43.2581 143.016 30.9853 143.016 18.7124C143.016 16.733 143.016 14.7535 143.016 12.774C143.016 11.4783 143.016 10.1827 143.016 8.88699C143.016 5.41692 142.355 5.89822 138.644 5.48587" stroke="#373435" stroke-width="10" stroke-linecap="round"/>
<path d="M85.1975 5H140.101" stroke="#373435" stroke-width="10" stroke-linecap="round"/>
<path d="M83.7398 6.94348V41.4405" stroke="#373435" stroke-width="10" stroke-linecap="round"/>
<path d="M44.384 41.4405L83.6327 41.1292" stroke="#373435" stroke-width="10" stroke-linecap="round"/>
<path d="M44.384 43.384V58.4461" stroke="#373435" stroke-width="10" stroke-linecap="round"/>
<path d="M5 59.4461L43.6327 59.1292" stroke="#373435" stroke-width="10" stroke-linecap="round"/>
<path d="M169.254 92.9432H204.722" stroke="#373435" stroke-width="10" stroke-linecap="round"/>
<path d="M204.633 93.1292L204.722 268.83" stroke="#373435" stroke-width="10" stroke-linecap="round"/>
<path d="M5.31001 59.2607C54.5865 155.458 150.694 164.948 135.904 272.291" stroke="#373435" stroke-width="10"/>
</svg>
