<svg width="347" height="200" viewBox="0 0 447 300" fill="none" xmlns="http://www.w3.org/2000/svg">
<path d="M10.31 71.8767C60.0241 168.819 156.362 178.701 141.917 286.631" stroke="#C42626" stroke-width="10"/>
<path d="M168.768 68.5309V245.875" stroke="#373435" stroke-width="10" stroke-linecap="round"/>
<path d="M143.016 68.5309L165.633 68.1292" stroke="#373435" stroke-width="10" stroke-linecap="round"/>
<path d="M143.016 68.5309C143.016 56.2581 143.016 43.9853 143.016 31.7124C143.016 29.733 143.016 27.7535 143.016 25.774C143.016 24.4783 143.016 23.1827 143.016 21.887C143.016 18.4169 142.355 18.8982 138.644 18.4859" stroke="#373435" stroke-width="10" stroke-linecap="round"/>
<path d="M85.1975 18H140.101" stroke="#373435" stroke-width="10" stroke-linecap="round"/>
<path d="M83.7398 19.9435V54.4405" stroke="#373435" stroke-width="10" stroke-linecap="round"/>
<path d="M44.384 54.4406L83.6327 54.1292" stroke="#373435" stroke-width="10" stroke-linecap="round"/>
<path d="M44.384 56.384V71.4461" stroke="#373435" stroke-width="10" stroke-linecap="round"/>
<path d="M5 72.4461L43.6327 72.1291" stroke="#373435" stroke-width="10" stroke-linecap="round"/>
<path d="M169.254 105.943H204.722" stroke="#373435" stroke-width="10" stroke-linecap="round"/>
<path d="M204.633 106.129L204.722 281.83" stroke="#373435" stroke-width="10" stroke-linecap="round"/>
<g filter="url(#filter0_d_1_141)">
<path d="M207.84 68.64C205.621 68.64 203.659 68.4693 201.952 68.128C200.288 67.7867 198.709 67.2747 197.216 66.592V60.96C198.069 61.3867 199.029 61.8133 200.096 62.24C201.163 62.6667 202.336 63.008 203.616 63.264C204.939 63.52 206.368 63.648 207.904 63.648C209.355 63.648 210.72 63.4987 212 63.2C213.28 62.8587 214.411 62.3467 215.392 61.664C216.373 60.9387 217.141 60.0427 217.696 58.976C218.293 57.9093 218.592 56.6507 218.592 55.2C218.592 54.048 218.336 53.024 217.824 52.128C217.355 51.232 216.565 50.3573 215.456 49.504C214.347 48.608 212.875 47.648 211.04 46.624C209.419 45.6427 207.968 44.64 206.688 43.616C205.451 42.5493 204.469 41.3333 203.744 39.968C203.061 38.56 202.72 36.8747 202.72 34.912C202.72 32.7787 203.104 30.9013 203.872 29.28C204.683 27.6587 205.771 26.272 207.136 25.12C208.544 23.968 210.144 23.1147 211.936 22.56C213.771 21.9627 215.712 21.664 217.76 21.664C220.149 21.664 222.24 21.8987 224.032 22.368C225.867 22.8373 227.595 23.4987 229.216 24.352L227.04 29.216C225.931 28.6187 224.544 28.064 222.88 27.552C221.216 26.9973 219.509 26.72 217.76 26.72C216.437 26.72 215.221 26.8907 214.112 27.232C213.045 27.5733 212.107 28.0853 211.296 28.768C210.528 29.4507 209.909 30.2827 209.44 31.264C209.013 32.2027 208.8 33.2907 208.8 34.528C208.8 35.808 209.035 36.896 209.504 37.792C209.973 38.6453 210.699 39.4347 211.68 40.16C212.661 40.8427 213.877 41.632 215.328 42.528C217.163 43.6373 218.763 44.7253 220.128 45.792C221.536 46.8587 222.624 48.096 223.392 49.504C224.203 50.912 224.608 52.6613 224.608 54.752C224.608 57.056 224.203 59.0827 223.392 60.832C222.624 62.5387 221.493 63.968 220 65.12C218.549 66.272 216.779 67.1467 214.688 67.744C212.64 68.3413 210.357 68.64 207.84 68.64ZM238.041 68L246.617 27.36H234.073L235.161 22.304H266.009L264.985 27.36H252.441L243.801 68H238.041ZM253.539 68L278.372 22.304H284.388L290.02 68H284.388L282.66 53.792H267.236L259.812 68H253.539ZM269.988 48.672H282.084L281.06 39.072C280.889 37.4507 280.718 35.6587 280.548 33.696C280.42 31.7333 280.334 30.0053 280.292 28.512H280.1C279.417 30.1333 278.628 31.8827 277.732 33.76C276.836 35.5947 275.897 37.4507 274.916 39.328L269.988 48.672ZM299.666 68L308.242 27.36H295.698L296.786 22.304H327.634L326.61 27.36H314.066L305.426 68H299.666ZM341.2 68.64C338.043 68.64 335.397 68.1493 333.264 67.168C331.173 66.1867 329.616 64.7573 328.592 62.88C327.568 61.0027 327.056 58.6987 327.056 55.968C327.056 55.2427 327.12 54.3467 327.248 53.28C327.376 52.2133 327.568 51.0827 327.824 49.888L333.712 22.304H339.408L333.456 50.208C333.243 51.1893 333.072 52.2133 332.944 53.28C332.816 54.3467 332.752 55.2213 332.752 55.904C332.752 58.2933 333.477 60.1707 334.928 61.536C336.421 62.9013 338.619 63.584 341.52 63.584C344.037 63.584 346.107 63.1573 347.728 62.304C349.392 61.408 350.715 60.1067 351.696 58.4C352.677 56.6507 353.445 54.5173 354 52L360.336 22.304H366.032L359.632 52.448C358.949 55.776 357.861 58.656 356.368 61.088C354.917 63.52 352.955 65.3973 350.48 66.72C348.005 68 344.912 68.64 341.2 68.64ZM377.153 68.64C374.934 68.64 372.971 68.4693 371.265 68.128C369.601 67.7867 368.022 67.2747 366.529 66.592V60.96C367.382 61.3867 368.342 61.8133 369.409 62.24C370.475 62.6667 371.649 63.008 372.929 63.264C374.251 63.52 375.681 63.648 377.217 63.648C378.667 63.648 380.033 63.4987 381.312 63.2C382.593 62.8587 383.723 62.3467 384.705 61.664C385.686 60.9387 386.454 60.0427 387.009 58.976C387.606 57.9093 387.905 56.6507 387.905 55.2C387.905 54.048 387.649 53.024 387.137 52.128C386.667 51.232 385.878 50.3573 384.769 49.504C383.659 48.608 382.187 47.648 380.353 46.624C378.731 45.6427 377.281 44.64 376.001 43.616C374.763 42.5493 373.782 41.3333 373.057 39.968C372.374 38.56 372.033 36.8747 372.033 34.912C372.033 32.7787 372.417 30.9013 373.185 29.28C373.995 27.6587 375.083 26.272 376.449 25.12C377.857 23.968 379.457 23.1147 381.249 22.56C383.083 21.9627 385.025 21.664 387.073 21.664C389.462 21.664 391.553 21.8987 393.345 22.368C395.179 22.8373 396.907 23.4987 398.529 24.352L396.353 29.216C395.243 28.6187 393.857 28.064 392.193 27.552C390.529 26.9973 388.822 26.72 387.073 26.72C385.75 26.72 384.534 26.8907 383.425 27.232C382.358 27.5733 381.419 28.0853 380.609 28.768C379.841 29.4507 379.222 30.2827 378.753 31.264C378.326 32.2027 378.113 33.2907 378.113 34.528C378.113 35.808 378.347 36.896 378.817 37.792C379.286 38.6453 380.011 39.4347 380.993 40.16C381.974 40.8427 383.19 41.632 384.641 42.528C386.475 43.6373 388.075 44.7253 389.441 45.792C390.849 46.8587 391.937 48.096 392.705 49.504C393.515 50.912 393.921 52.6613 393.921 54.752C393.921 57.056 393.515 59.0827 392.705 60.832C391.937 62.5387 390.806 63.968 389.313 65.12C387.862 66.272 386.091 67.1467 384.001 67.744C381.953 68.3413 379.67 68.64 377.153 68.64Z" fill="black"/>
</g>
<g filter="url(#filter1_d_1_141)">
<line x1="196" y1="83" x2="396" y2="83" stroke="#EF1B1B" stroke-width="6"/>
</g>
<path d="M226.64 235L225.424 231.704H221.008L219.792 235H218L222.336 223.528H224.128L228.448 235H226.64ZM223.792 226.984C223.76 226.867 223.701 226.691 223.616 226.456C223.541 226.211 223.467 225.965 223.392 225.72C223.317 225.464 223.259 225.256 223.216 225.096C223.163 225.309 223.099 225.544 223.024 225.8C222.96 226.045 222.896 226.275 222.832 226.488C222.768 226.691 222.715 226.856 222.672 226.984L221.52 230.2H224.944L223.792 226.984ZM232.757 235.16C231.722 235.16 230.885 234.787 230.245 234.04C229.615 233.293 229.301 232.184 229.301 230.712C229.301 229.229 229.621 228.109 230.261 227.352C230.901 226.595 231.743 226.216 232.789 226.216C233.226 226.216 233.605 226.275 233.925 226.392C234.255 226.499 234.538 226.648 234.773 226.84C235.018 227.032 235.226 227.245 235.397 227.48H235.493C235.471 227.331 235.445 227.117 235.413 226.84C235.381 226.552 235.365 226.296 235.365 226.072V222.84H237.061V235H235.733L235.445 233.848H235.365C235.205 234.093 235.002 234.317 234.757 234.52C234.522 234.712 234.239 234.867 233.909 234.984C233.578 235.101 233.194 235.16 232.757 235.16ZM233.157 233.768C233.989 233.768 234.575 233.539 234.917 233.08C235.258 232.611 235.429 231.912 235.429 230.984V230.728C235.429 229.715 235.263 228.941 234.933 228.408C234.613 227.875 234.015 227.608 233.141 227.608C232.447 227.608 231.925 227.891 231.573 228.456C231.221 229.011 231.045 229.773 231.045 230.744C231.045 231.715 231.221 232.461 231.573 232.984C231.925 233.507 232.453 233.768 233.157 233.768ZM249.383 226.216C250.353 226.216 251.084 226.467 251.575 226.968C252.065 227.469 252.311 228.275 252.311 229.384V235H250.615V229.608C250.615 228.947 250.481 228.451 250.215 228.12C249.959 227.779 249.553 227.608 248.999 227.608C248.231 227.608 247.681 227.848 247.351 228.328C247.02 228.797 246.855 229.48 246.855 230.376V235H245.175V229.608C245.175 229.171 245.111 228.803 244.983 228.504C244.865 228.205 244.689 227.981 244.455 227.832C244.22 227.683 243.916 227.608 243.543 227.608C243.009 227.608 242.588 227.725 242.279 227.96C241.969 228.195 241.745 228.541 241.607 229C241.479 229.448 241.415 229.997 241.415 230.648V235H239.719V226.376H241.063L241.303 227.528H241.399C241.58 227.229 241.799 226.984 242.055 226.792C242.321 226.6 242.615 226.456 242.935 226.36C243.255 226.264 243.585 226.216 243.927 226.216C244.577 226.216 245.127 226.333 245.575 226.568C246.023 226.792 246.348 227.139 246.551 227.608H246.679C246.956 227.128 247.34 226.776 247.831 226.552C248.321 226.328 248.839 226.216 249.383 226.216ZM254.666 234.056C254.666 233.64 254.773 233.347 254.986 233.176C255.199 233.005 255.455 232.92 255.754 232.92C256.063 232.92 256.325 233.005 256.538 233.176C256.751 233.347 256.858 233.64 256.858 234.056C256.858 234.472 256.751 234.771 256.538 234.952C256.325 235.133 256.063 235.224 255.754 235.224C255.455 235.224 255.199 235.133 254.986 234.952C254.773 234.771 254.666 234.472 254.666 234.056ZM266.397 235.16C265.363 235.16 264.525 234.787 263.885 234.04C263.256 233.293 262.941 232.184 262.941 230.712C262.941 229.229 263.261 228.109 263.901 227.352C264.541 226.595 265.384 226.216 266.429 226.216C266.867 226.216 267.245 226.275 267.565 226.392C267.896 226.499 268.179 226.648 268.413 226.84C268.659 227.032 268.867 227.245 269.037 227.48H269.133C269.112 227.331 269.085 227.117 269.053 226.84C269.021 226.552 269.005 226.296 269.005 226.072V222.84H270.701V235H269.373L269.085 233.848H269.005C268.845 234.093 268.643 234.317 268.397 234.52C268.163 234.712 267.88 234.867 267.549 234.984C267.219 235.101 266.835 235.16 266.397 235.16ZM266.797 233.768C267.629 233.768 268.216 233.539 268.557 233.08C268.899 232.611 269.069 231.912 269.069 230.984V230.728C269.069 229.715 268.904 228.941 268.573 228.408C268.253 227.875 267.656 227.608 266.781 227.608C266.088 227.608 265.565 227.891 265.213 228.456C264.861 229.011 264.685 229.773 264.685 230.744C264.685 231.715 264.861 232.461 265.213 232.984C265.565 233.507 266.093 233.768 266.797 233.768ZM276.751 226.216C277.509 226.216 278.159 226.376 278.703 226.696C279.247 227.005 279.663 227.453 279.951 228.04C280.25 228.627 280.399 229.32 280.399 230.12V231.048H274.607C274.629 231.933 274.858 232.611 275.295 233.08C275.743 233.549 276.367 233.784 277.167 233.784C277.722 233.784 278.213 233.736 278.639 233.64C279.077 233.533 279.525 233.379 279.983 233.176V234.584C279.557 234.776 279.119 234.92 278.671 235.016C278.234 235.112 277.711 235.16 277.103 235.16C276.271 235.16 275.535 234.995 274.895 234.664C274.255 234.333 273.754 233.843 273.391 233.192C273.039 232.531 272.863 231.72 272.863 230.76C272.863 229.789 273.023 228.968 273.343 228.296C273.674 227.624 274.127 227.112 274.703 226.76C275.29 226.397 275.973 226.216 276.751 226.216ZM276.751 227.528C276.143 227.528 275.653 227.725 275.279 228.12C274.917 228.515 274.703 229.075 274.639 229.8H278.703C278.703 229.352 278.634 228.957 278.495 228.616C278.357 228.275 278.143 228.008 277.855 227.816C277.567 227.624 277.199 227.528 276.751 227.528ZM291.744 224.904C291.178 224.904 290.672 225.005 290.224 225.208C289.776 225.4 289.392 225.688 289.072 226.072C288.762 226.456 288.522 226.92 288.352 227.464C288.192 228.008 288.112 228.621 288.112 229.304C288.112 230.2 288.245 230.979 288.512 231.64C288.778 232.291 289.178 232.792 289.712 233.144C290.245 233.496 290.917 233.672 291.728 233.672C292.218 233.672 292.688 233.629 293.136 233.544C293.594 233.448 294.058 233.325 294.528 233.176V234.664C294.08 234.835 293.621 234.957 293.152 235.032C292.682 235.117 292.138 235.16 291.52 235.16C290.357 235.16 289.386 234.92 288.608 234.44C287.84 233.96 287.264 233.277 286.88 232.392C286.496 231.507 286.304 230.472 286.304 229.288C286.304 228.424 286.421 227.635 286.656 226.92C286.901 226.195 287.253 225.571 287.712 225.048C288.17 224.525 288.736 224.125 289.408 223.848C290.09 223.56 290.874 223.416 291.76 223.416C292.336 223.416 292.901 223.48 293.456 223.608C294.01 223.725 294.512 223.896 294.96 224.12L294.32 225.56C293.946 225.389 293.541 225.24 293.104 225.112C292.677 224.973 292.224 224.904 291.744 224.904ZM304.397 230.68C304.397 231.395 304.301 232.029 304.109 232.584C303.917 233.139 303.645 233.608 303.293 233.992C302.941 234.376 302.514 234.669 302.013 234.872C301.511 235.064 300.946 235.16 300.317 235.16C299.741 235.16 299.207 235.064 298.717 234.872C298.226 234.669 297.799 234.376 297.437 233.992C297.085 233.608 296.807 233.139 296.605 232.584C296.402 232.029 296.301 231.389 296.301 230.664C296.301 229.715 296.461 228.909 296.781 228.248C297.111 227.587 297.581 227.085 298.189 226.744C298.807 226.392 299.533 226.216 300.365 226.216C301.154 226.216 301.847 226.392 302.445 226.744C303.053 227.085 303.527 227.587 303.869 228.248C304.221 228.909 304.397 229.72 304.397 230.68ZM298.045 230.68C298.045 231.32 298.125 231.875 298.285 232.344C298.445 232.803 298.695 233.155 299.037 233.4C299.378 233.645 299.815 233.768 300.349 233.768C300.882 233.768 301.319 233.645 301.661 233.4C302.002 233.155 302.253 232.803 302.413 232.344C302.573 231.875 302.653 231.32 302.653 230.68C302.653 230.019 302.567 229.464 302.397 229.016C302.237 228.568 301.986 228.227 301.645 227.992C301.314 227.747 300.877 227.624 300.333 227.624C299.533 227.624 298.951 227.891 298.589 228.424C298.226 228.957 298.045 229.709 298.045 230.68ZM310.915 226.216C311.917 226.216 312.685 226.467 313.219 226.968C313.752 227.469 314.019 228.275 314.019 229.384V235H312.339V229.624C312.339 228.952 312.195 228.451 311.907 228.12C311.629 227.779 311.181 227.608 310.563 227.608C309.688 227.608 309.08 227.869 308.739 228.392C308.408 228.915 308.243 229.667 308.243 230.648V235H306.547V226.376H307.891L308.131 227.528H308.227C308.419 227.229 308.653 226.984 308.931 226.792C309.208 226.6 309.517 226.456 309.859 226.36C310.2 226.264 310.552 226.216 310.915 226.216ZM319.585 235.16C318.55 235.16 317.713 234.787 317.073 234.04C316.444 233.293 316.129 232.184 316.129 230.712C316.129 229.229 316.449 228.109 317.089 227.352C317.729 226.595 318.572 226.216 319.617 226.216C320.054 226.216 320.433 226.275 320.753 226.392C321.084 226.499 321.366 226.648 321.601 226.84C321.846 227.032 322.054 227.245 322.225 227.48H322.321C322.3 227.331 322.273 227.117 322.241 226.84C322.209 226.552 322.193 226.296 322.193 226.072V222.84H323.889V235H322.561L322.273 233.848H322.193C322.033 234.093 321.83 234.317 321.585 234.52C321.35 234.712 321.068 234.867 320.737 234.984C320.406 235.101 320.022 235.16 319.585 235.16ZM319.985 233.768C320.817 233.768 321.404 233.539 321.745 233.08C322.086 232.611 322.257 231.912 322.257 230.984V230.728C322.257 229.715 322.092 228.941 321.761 228.408C321.441 227.875 320.844 227.608 319.969 227.608C319.276 227.608 318.753 227.891 318.401 228.456C318.049 229.011 317.873 229.773 317.873 230.744C317.873 231.715 318.049 232.461 318.401 232.984C318.753 233.507 319.281 233.768 319.985 233.768ZM334.147 230.68C334.147 231.395 334.051 232.029 333.859 232.584C333.667 233.139 333.395 233.608 333.043 233.992C332.691 234.376 332.264 234.669 331.763 234.872C331.261 235.064 330.696 235.16 330.067 235.16C329.491 235.16 328.957 235.064 328.467 234.872C327.976 234.669 327.549 234.376 327.187 233.992C326.835 233.608 326.557 233.139 326.355 232.584C326.152 232.029 326.051 231.389 326.051 230.664C326.051 229.715 326.211 228.909 326.531 228.248C326.861 227.587 327.331 227.085 327.939 226.744C328.557 226.392 329.283 226.216 330.115 226.216C330.904 226.216 331.597 226.392 332.195 226.744C332.803 227.085 333.277 227.587 333.619 228.248C333.971 228.909 334.147 229.72 334.147 230.68ZM327.795 230.68C327.795 231.32 327.875 231.875 328.035 232.344C328.195 232.803 328.445 233.155 328.787 233.4C329.128 233.645 329.565 233.768 330.099 233.768C330.632 233.768 331.069 233.645 331.411 233.4C331.752 233.155 332.003 232.803 332.163 232.344C332.323 231.875 332.403 231.32 332.403 230.68C332.403 230.019 332.317 229.464 332.147 229.016C331.987 228.568 331.736 228.227 331.395 227.992C331.064 227.747 330.627 227.624 330.083 227.624C329.283 227.624 328.701 227.891 328.339 228.424C327.976 228.957 327.795 229.709 327.795 230.68ZM345.961 226.216C346.931 226.216 347.662 226.467 348.153 226.968C348.643 227.469 348.889 228.275 348.889 229.384V235H347.193V229.608C347.193 228.947 347.059 228.451 346.793 228.12C346.537 227.779 346.131 227.608 345.577 227.608C344.809 227.608 344.259 227.848 343.929 228.328C343.598 228.797 343.433 229.48 343.433 230.376V235H341.753V229.608C341.753 229.171 341.689 228.803 341.561 228.504C341.443 228.205 341.267 227.981 341.033 227.832C340.798 227.683 340.494 227.608 340.121 227.608C339.587 227.608 339.166 227.725 338.857 227.96C338.547 228.195 338.323 228.541 338.185 229C338.057 229.448 337.993 229.997 337.993 230.648V235H336.297V226.376H337.641L337.881 227.528H337.977C338.158 227.229 338.377 226.984 338.633 226.792C338.899 226.6 339.193 226.456 339.513 226.36C339.833 226.264 340.163 226.216 340.505 226.216C341.155 226.216 341.705 226.333 342.153 226.568C342.601 226.792 342.926 227.139 343.129 227.608H343.257C343.534 227.128 343.918 226.776 344.409 226.552C344.899 226.328 345.417 226.216 345.961 226.216ZM353.18 235H351.484V226.376H353.18V235ZM355.004 222.904C354.887 223.053 354.727 223.235 354.524 223.448C354.332 223.661 354.114 223.885 353.868 224.12C353.634 224.344 353.399 224.563 353.164 224.776C352.93 224.979 352.716 225.155 352.524 225.304H351.404V225.112C351.564 224.909 351.746 224.669 351.948 224.392C352.151 224.115 352.348 223.832 352.54 223.544C352.732 223.245 352.892 222.979 353.02 222.744H355.004V222.904ZM360.212 226.216C361.214 226.216 361.982 226.467 362.516 226.968C363.049 227.469 363.316 228.275 363.316 229.384V235H361.636V229.624C361.636 228.952 361.492 228.451 361.204 228.12C360.926 227.779 360.478 227.608 359.86 227.608C358.985 227.608 358.377 227.869 358.036 228.392C357.705 228.915 357.54 229.667 357.54 230.648V235H355.844V226.376H357.188L357.428 227.528H357.524C357.716 227.229 357.95 226.984 358.228 226.792C358.505 226.6 358.814 226.456 359.156 226.36C359.497 226.264 359.849 226.216 360.212 226.216ZM367.618 226.376V235H365.922V226.376H367.618ZM366.786 223.096C367.042 223.096 367.266 223.171 367.458 223.32C367.65 223.469 367.746 223.72 367.746 224.072C367.746 224.413 367.65 224.664 367.458 224.824C367.266 224.973 367.042 225.048 366.786 225.048C366.508 225.048 366.274 224.973 366.082 224.824C365.9 224.664 365.81 224.413 365.81 224.072C365.81 223.72 365.9 223.469 366.082 223.32C366.274 223.171 366.508 223.096 366.786 223.096ZM377.881 230.68C377.881 231.395 377.785 232.029 377.593 232.584C377.401 233.139 377.129 233.608 376.777 233.992C376.425 234.376 375.998 234.669 375.497 234.872C374.996 235.064 374.43 235.16 373.801 235.16C373.225 235.16 372.692 235.064 372.201 234.872C371.71 234.669 371.284 234.376 370.921 233.992C370.569 233.608 370.292 233.139 370.089 232.584C369.886 232.029 369.785 231.389 369.785 230.664C369.785 229.715 369.945 228.909 370.265 228.248C370.596 227.587 371.065 227.085 371.673 226.744C372.292 226.392 373.017 226.216 373.849 226.216C374.638 226.216 375.332 226.392 375.929 226.744C376.537 227.085 377.012 227.587 377.353 228.248C377.705 228.909 377.881 229.72 377.881 230.68ZM371.529 230.68C371.529 231.32 371.609 231.875 371.769 232.344C371.929 232.803 372.18 233.155 372.521 233.4C372.862 233.645 373.3 233.768 373.833 233.768C374.366 233.768 374.804 233.645 375.145 233.4C375.486 233.155 375.737 232.803 375.897 232.344C376.057 231.875 376.137 231.32 376.137 230.68C376.137 230.019 376.052 229.464 375.881 229.016C375.721 228.568 375.47 228.227 375.129 227.992C374.798 227.747 374.361 227.624 373.817 227.624C373.017 227.624 372.436 227.891 372.073 228.424C371.71 228.957 371.529 229.709 371.529 230.68ZM385.759 232.568C385.759 233.133 385.62 233.608 385.343 233.992C385.066 234.376 384.666 234.669 384.143 234.872C383.62 235.064 382.991 235.16 382.255 235.16C381.647 235.16 381.124 235.112 380.687 235.016C380.26 234.931 379.866 234.803 379.503 234.632V233.144C379.887 233.325 380.33 233.491 380.831 233.64C381.332 233.779 381.823 233.848 382.303 233.848C382.943 233.848 383.402 233.747 383.679 233.544C383.967 233.341 384.111 233.069 384.111 232.728C384.111 232.536 384.058 232.365 383.951 232.216C383.844 232.056 383.642 231.896 383.343 231.736C383.055 231.565 382.628 231.373 382.063 231.16C381.519 230.936 381.055 230.717 380.671 230.504C380.287 230.28 379.994 230.019 379.791 229.72C379.588 229.411 379.487 229.016 379.487 228.536C379.487 227.789 379.786 227.219 380.383 226.824C380.991 226.419 381.791 226.216 382.783 226.216C383.306 226.216 383.796 226.269 384.255 226.376C384.724 226.472 385.178 226.621 385.615 226.824L385.055 228.12C384.81 228.003 384.554 227.907 384.287 227.832C384.031 227.747 383.77 227.677 383.503 227.624C383.247 227.571 382.98 227.544 382.703 227.544C382.191 227.544 381.802 227.624 381.535 227.784C381.268 227.944 381.135 228.168 381.135 228.456C381.135 228.659 381.194 228.835 381.311 228.984C381.439 229.133 381.658 229.283 381.967 229.432C382.276 229.581 382.698 229.763 383.231 229.976C383.764 230.179 384.218 230.387 384.591 230.6C384.975 230.813 385.263 231.075 385.455 231.384C385.658 231.693 385.759 232.088 385.759 232.568ZM228.896 257H226.8L221.024 247.768H220.96C220.971 247.981 220.981 248.211 220.992 248.456C221.013 248.701 221.029 248.963 221.04 249.24C221.051 249.507 221.061 249.784 221.072 250.072C221.083 250.349 221.088 250.632 221.088 250.92V257H219.52V245.576H221.6L227.36 254.76H227.408C227.397 254.6 227.387 254.403 227.376 254.168C227.365 253.923 227.355 253.661 227.344 253.384C227.344 253.107 227.339 252.824 227.328 252.536C227.317 252.248 227.307 251.976 227.296 251.72V245.576H228.896V257ZM235.142 248.216C235.899 248.216 236.55 248.376 237.094 248.696C237.638 249.005 238.054 249.453 238.342 250.04C238.641 250.627 238.79 251.32 238.79 252.12V253.048H232.998C233.019 253.933 233.249 254.611 233.686 255.08C234.134 255.549 234.758 255.784 235.558 255.784C236.113 255.784 236.603 255.736 237.03 255.64C237.467 255.533 237.915 255.379 238.374 255.176V256.584C237.947 256.776 237.51 256.92 237.062 257.016C236.625 257.112 236.102 257.16 235.494 257.16C234.662 257.16 233.926 256.995 233.286 256.664C232.646 256.333 232.145 255.843 231.782 255.192C231.43 254.531 231.254 253.72 231.254 252.76C231.254 251.789 231.414 250.968 231.734 250.296C232.065 249.624 232.518 249.112 233.094 248.76C233.681 248.397 234.363 248.216 235.142 248.216ZM235.142 249.528C234.534 249.528 234.043 249.725 233.67 250.12C233.307 250.515 233.094 251.075 233.03 251.8H237.094C237.094 251.352 237.025 250.957 236.886 250.616C236.747 250.275 236.534 250.008 236.246 249.816C235.958 249.624 235.59 249.528 235.142 249.528ZM243.882 248.216C244.437 248.216 244.938 248.323 245.386 248.536C245.834 248.749 246.213 249.075 246.522 249.512H246.602L246.794 248.376H248.17V257.112C248.17 257.923 248.026 258.605 247.738 259.16C247.45 259.715 247.007 260.131 246.41 260.408C245.823 260.696 245.082 260.84 244.186 260.84C243.567 260.84 242.997 260.797 242.474 260.712C241.951 260.627 241.471 260.493 241.034 260.312V258.824C241.343 258.973 241.669 259.096 242.01 259.192C242.351 259.299 242.714 259.373 243.098 259.416C243.482 259.469 243.877 259.496 244.282 259.496C244.986 259.496 245.53 259.293 245.914 258.888C246.298 258.493 246.49 257.933 246.49 257.208V256.92C246.49 256.781 246.495 256.6 246.506 256.376C246.517 256.141 246.527 255.971 246.538 255.864H246.474C246.175 256.312 245.807 256.643 245.37 256.856C244.943 257.059 244.447 257.16 243.882 257.16C242.794 257.16 241.941 256.771 241.322 255.992C240.714 255.203 240.41 254.109 240.41 252.712C240.41 251.773 240.549 250.973 240.826 250.312C241.103 249.64 241.498 249.123 242.01 248.76C242.533 248.397 243.157 248.216 243.882 248.216ZM244.234 249.624C243.786 249.624 243.407 249.747 243.098 249.992C242.789 250.227 242.554 250.573 242.394 251.032C242.234 251.491 242.154 252.056 242.154 252.728C242.154 253.731 242.33 254.493 242.682 255.016C243.045 255.539 243.573 255.8 244.266 255.8C244.671 255.8 245.013 255.747 245.29 255.64C245.578 255.533 245.813 255.368 245.994 255.144C246.186 254.92 246.325 254.637 246.41 254.296C246.506 253.944 246.554 253.523 246.554 253.032V252.712C246.554 251.976 246.469 251.384 246.298 250.936C246.138 250.477 245.887 250.147 245.546 249.944C245.205 249.731 244.767 249.624 244.234 249.624ZM258.428 252.68C258.428 253.395 258.332 254.029 258.14 254.584C257.948 255.139 257.676 255.608 257.324 255.992C256.972 256.376 256.545 256.669 256.044 256.872C255.543 257.064 254.977 257.16 254.348 257.16C253.772 257.16 253.239 257.064 252.748 256.872C252.257 256.669 251.831 256.376 251.468 255.992C251.116 255.608 250.839 255.139 250.636 254.584C250.433 254.029 250.332 253.389 250.332 252.664C250.332 251.715 250.492 250.909 250.812 250.248C251.143 249.587 251.612 249.085 252.22 248.744C252.839 248.392 253.564 248.216 254.396 248.216C255.185 248.216 255.879 248.392 256.476 248.744C257.084 249.085 257.559 249.587 257.9 250.248C258.252 250.909 258.428 251.72 258.428 252.68ZM252.076 252.68C252.076 253.32 252.156 253.875 252.316 254.344C252.476 254.803 252.727 255.155 253.068 255.4C253.409 255.645 253.847 255.768 254.38 255.768C254.913 255.768 255.351 255.645 255.692 255.4C256.033 255.155 256.284 254.803 256.444 254.344C256.604 253.875 256.684 253.32 256.684 252.68C256.684 252.019 256.599 251.464 256.428 251.016C256.268 250.568 256.017 250.227 255.676 249.992C255.345 249.747 254.908 249.624 254.364 249.624C253.564 249.624 252.983 249.891 252.62 250.424C252.257 250.957 252.076 251.709 252.076 252.68ZM257.052 244.904C256.935 245.053 256.775 245.235 256.572 245.448C256.38 245.661 256.161 245.885 255.916 246.12C255.681 246.344 255.447 246.563 255.212 246.776C254.977 246.979 254.764 247.155 254.572 247.304H253.452V247.112C253.612 246.909 253.793 246.669 253.996 246.392C254.199 246.115 254.396 245.832 254.588 245.544C254.78 245.245 254.94 244.979 255.068 244.744H257.052V244.904ZM264.05 257.16C263.261 257.16 262.567 257.005 261.97 256.696C261.373 256.387 260.909 255.907 260.578 255.256C260.247 254.595 260.082 253.757 260.082 252.744C260.082 251.677 260.258 250.813 260.61 250.152C260.973 249.491 261.458 249.005 262.066 248.696C262.685 248.376 263.389 248.216 264.178 248.216C264.658 248.216 265.106 248.269 265.522 248.376C265.949 248.472 266.301 248.584 266.578 248.712L266.066 250.088C265.767 249.971 265.447 249.869 265.106 249.784C264.775 249.699 264.461 249.656 264.162 249.656C263.629 249.656 263.186 249.773 262.834 250.008C262.493 250.232 262.237 250.573 262.066 251.032C261.906 251.48 261.826 252.045 261.826 252.728C261.826 253.379 261.911 253.928 262.082 254.376C262.253 254.824 262.503 255.165 262.834 255.4C263.175 255.624 263.597 255.736 264.098 255.736C264.578 255.736 264.999 255.683 265.362 255.576C265.725 255.469 266.066 255.331 266.386 255.16V256.632C266.077 256.813 265.741 256.947 265.378 257.032C265.015 257.117 264.573 257.16 264.05 257.16ZM270.118 248.376V257H268.422V248.376H270.118ZM269.286 245.096C269.542 245.096 269.766 245.171 269.958 245.32C270.15 245.469 270.246 245.72 270.246 246.072C270.246 246.413 270.15 246.664 269.958 246.824C269.766 246.973 269.542 247.048 269.286 247.048C269.008 247.048 268.774 246.973 268.582 246.824C268.4 246.664 268.31 246.413 268.31 246.072C268.31 245.72 268.4 245.469 268.582 245.32C268.774 245.171 269.008 245.096 269.286 245.096ZM280.381 252.68C280.381 253.395 280.285 254.029 280.093 254.584C279.901 255.139 279.629 255.608 279.277 255.992C278.925 256.376 278.498 256.669 277.997 256.872C277.496 257.064 276.93 257.16 276.301 257.16C275.725 257.16 275.192 257.064 274.701 256.872C274.21 256.669 273.784 256.376 273.421 255.992C273.069 255.608 272.792 255.139 272.589 254.584C272.386 254.029 272.285 253.389 272.285 252.664C272.285 251.715 272.445 250.909 272.765 250.248C273.096 249.587 273.565 249.085 274.173 248.744C274.792 248.392 275.517 248.216 276.349 248.216C277.138 248.216 277.832 248.392 278.429 248.744C279.037 249.085 279.512 249.587 279.853 250.248C280.205 250.909 280.381 251.72 280.381 252.68ZM274.029 252.68C274.029 253.32 274.109 253.875 274.269 254.344C274.429 254.803 274.68 255.155 275.021 255.4C275.362 255.645 275.8 255.768 276.333 255.768C276.866 255.768 277.304 255.645 277.645 255.4C277.986 255.155 278.237 254.803 278.397 254.344C278.557 253.875 278.637 253.32 278.637 252.68C278.637 252.019 278.552 251.464 278.381 251.016C278.221 250.568 277.97 250.227 277.629 249.992C277.298 249.747 276.861 249.624 276.317 249.624C275.517 249.624 274.936 249.891 274.573 250.424C274.21 250.957 274.029 251.709 274.029 252.68ZM288.259 254.568C288.259 255.133 288.12 255.608 287.843 255.992C287.566 256.376 287.166 256.669 286.643 256.872C286.12 257.064 285.491 257.16 284.755 257.16C284.147 257.16 283.624 257.112 283.187 257.016C282.76 256.931 282.366 256.803 282.003 256.632V255.144C282.387 255.325 282.83 255.491 283.331 255.64C283.832 255.779 284.323 255.848 284.803 255.848C285.443 255.848 285.902 255.747 286.179 255.544C286.467 255.341 286.611 255.069 286.611 254.728C286.611 254.536 286.558 254.365 286.451 254.216C286.344 254.056 286.142 253.896 285.843 253.736C285.555 253.565 285.128 253.373 284.563 253.16C284.019 252.936 283.555 252.717 283.171 252.504C282.787 252.28 282.494 252.019 282.291 251.72C282.088 251.411 281.987 251.016 281.987 250.536C281.987 249.789 282.286 249.219 282.883 248.824C283.491 248.419 284.291 248.216 285.283 248.216C285.806 248.216 286.296 248.269 286.755 248.376C287.224 248.472 287.678 248.621 288.115 248.824L287.555 250.12C287.31 250.003 287.054 249.907 286.787 249.832C286.531 249.747 286.27 249.677 286.003 249.624C285.747 249.571 285.48 249.544 285.203 249.544C284.691 249.544 284.302 249.624 284.035 249.784C283.768 249.944 283.635 250.168 283.635 250.456C283.635 250.659 283.694 250.835 283.811 250.984C283.939 251.133 284.158 251.283 284.467 251.432C284.776 251.581 285.198 251.763 285.731 251.976C286.264 252.179 286.718 252.387 287.091 252.6C287.475 252.813 287.763 253.075 287.955 253.384C288.158 253.693 288.259 254.088 288.259 254.568ZM298.149 257H293.717V256.008L295.077 255.608V246.984L293.717 246.568V245.576H298.149V246.568L296.805 246.984V255.608L298.149 256.008V257ZM309.758 248.216C310.728 248.216 311.459 248.467 311.95 248.968C312.44 249.469 312.686 250.275 312.686 251.384V257H310.99V251.608C310.99 250.947 310.856 250.451 310.59 250.12C310.334 249.779 309.928 249.608 309.374 249.608C308.606 249.608 308.056 249.848 307.726 250.328C307.395 250.797 307.23 251.48 307.23 252.376V257H305.55V251.608C305.55 251.171 305.486 250.803 305.358 250.504C305.24 250.205 305.064 249.981 304.83 249.832C304.595 249.683 304.291 249.608 303.918 249.608C303.384 249.608 302.963 249.725 302.654 249.96C302.344 250.195 302.12 250.541 301.982 251C301.854 251.448 301.79 251.997 301.79 252.648V257H300.094V248.376H301.438L301.678 249.528H301.774C301.955 249.229 302.174 248.984 302.43 248.792C302.696 248.6 302.99 248.456 303.31 248.36C303.63 248.264 303.96 248.216 304.302 248.216C304.952 248.216 305.502 248.333 305.95 248.568C306.398 248.792 306.723 249.139 306.926 249.608H307.054C307.331 249.128 307.715 248.776 308.206 248.552C308.696 248.328 309.214 248.216 309.758 248.216ZM322.881 252.68C322.881 253.395 322.785 254.029 322.593 254.584C322.401 255.139 322.129 255.608 321.777 255.992C321.425 256.376 320.998 256.669 320.497 256.872C319.996 257.064 319.43 257.16 318.801 257.16C318.225 257.16 317.692 257.064 317.201 256.872C316.71 256.669 316.284 256.376 315.921 255.992C315.569 255.608 315.292 255.139 315.089 254.584C314.886 254.029 314.785 253.389 314.785 252.664C314.785 251.715 314.945 250.909 315.265 250.248C315.596 249.587 316.065 249.085 316.673 248.744C317.292 248.392 318.017 248.216 318.849 248.216C319.638 248.216 320.332 248.392 320.929 248.744C321.537 249.085 322.012 249.587 322.353 250.248C322.705 250.909 322.881 251.72 322.881 252.68ZM316.529 252.68C316.529 253.32 316.609 253.875 316.769 254.344C316.929 254.803 317.18 255.155 317.521 255.4C317.862 255.645 318.3 255.768 318.833 255.768C319.366 255.768 319.804 255.645 320.145 255.4C320.486 255.155 320.737 254.803 320.897 254.344C321.057 253.875 321.137 253.32 321.137 252.68C321.137 252.019 321.052 251.464 320.881 251.016C320.721 250.568 320.47 250.227 320.129 249.992C319.798 249.747 319.361 249.624 318.817 249.624C318.017 249.624 317.436 249.891 317.073 250.424C316.71 250.957 316.529 251.709 316.529 252.68ZM326.727 247.768C326.727 248.12 326.716 248.456 326.695 248.776C326.684 249.085 326.668 249.331 326.647 249.512H326.727C326.972 249.149 327.303 248.845 327.719 248.6C328.135 248.355 328.674 248.232 329.335 248.232C330.37 248.232 331.202 248.605 331.831 249.352C332.471 250.099 332.791 251.208 332.791 252.68C332.791 253.672 332.647 254.499 332.359 255.16C332.071 255.821 331.666 256.323 331.143 256.664C330.62 256.995 330.012 257.16 329.319 257.16C328.647 257.16 328.108 257.043 327.703 256.808C327.298 256.563 326.972 256.275 326.727 255.944H326.599L326.279 257H325.031V244.84H326.727V247.768ZM328.935 249.608C328.38 249.608 327.943 249.715 327.623 249.928C327.303 250.141 327.074 250.467 326.935 250.904C326.796 251.341 326.727 251.896 326.727 252.568V252.696C326.727 253.688 326.887 254.451 327.207 254.984C327.527 255.507 328.114 255.768 328.967 255.768C329.65 255.768 330.167 255.501 330.519 254.968C330.871 254.435 331.047 253.667 331.047 252.664C331.047 251.651 330.871 250.888 330.519 250.376C330.167 249.864 329.639 249.608 328.935 249.608ZM336.649 248.376V257H334.953V248.376H336.649ZM335.817 245.096C336.073 245.096 336.297 245.171 336.489 245.32C336.681 245.469 336.777 245.72 336.777 246.072C336.777 246.413 336.681 246.664 336.489 246.824C336.297 246.973 336.073 247.048 335.817 247.048C335.54 247.048 335.305 246.973 335.113 246.824C334.932 246.664 334.841 246.413 334.841 246.072C334.841 245.72 334.932 245.469 335.113 245.32C335.305 245.171 335.54 245.096 335.817 245.096ZM341.008 257H339.312V244.84H341.008V257ZM345.368 248.376V257H343.672V248.376H345.368ZM344.536 245.096C344.792 245.096 345.016 245.171 345.208 245.32C345.4 245.469 345.496 245.72 345.496 246.072C345.496 246.413 345.4 246.664 345.208 246.824C345.016 246.973 344.792 247.048 344.536 247.048C344.258 247.048 344.024 246.973 343.832 246.824C343.65 246.664 343.56 246.413 343.56 246.072C343.56 245.72 343.65 245.469 343.832 245.32C344.024 245.171 344.258 245.096 344.536 245.096ZM351.375 248.216C352.463 248.216 353.274 248.456 353.807 248.936C354.34 249.405 354.607 250.147 354.607 251.16V257H353.407L353.071 255.8H353.007C352.762 256.109 352.506 256.365 352.239 256.568C351.983 256.771 351.684 256.92 351.343 257.016C351.012 257.112 350.607 257.16 350.127 257.16C349.615 257.16 349.151 257.069 348.735 256.888C348.33 256.696 348.01 256.408 347.775 256.024C347.54 255.629 347.423 255.139 347.423 254.552C347.423 253.677 347.754 253.011 348.415 252.552C349.087 252.093 350.106 251.843 351.471 251.8L352.943 251.752V251.272C352.943 250.632 352.799 250.184 352.511 249.928C352.223 249.672 351.818 249.544 351.295 249.544C350.847 249.544 350.42 249.608 350.015 249.736C349.61 249.864 349.226 250.019 348.863 250.2L348.319 248.968C348.724 248.755 349.188 248.579 349.711 248.44C350.244 248.291 350.799 248.216 351.375 248.216ZM351.775 252.888C350.794 252.931 350.111 253.096 349.727 253.384C349.354 253.661 349.167 254.056 349.167 254.568C349.167 255.016 349.3 255.341 349.567 255.544C349.844 255.747 350.191 255.848 350.607 255.848C351.279 255.848 351.834 255.661 352.271 255.288C352.708 254.915 352.927 254.355 352.927 253.608V252.856L351.775 252.888ZM353.967 244.904C353.85 245.053 353.69 245.235 353.487 245.448C353.295 245.661 353.076 245.885 352.831 246.12C352.596 246.344 352.362 246.563 352.127 246.776C351.892 246.979 351.679 247.155 351.487 247.304H350.367V247.112C350.527 246.909 350.708 246.669 350.911 246.392C351.114 246.115 351.311 245.832 351.503 245.544C351.695 245.245 351.855 244.979 351.983 244.744H353.967V244.904ZM361.475 248.216C361.624 248.216 361.789 248.227 361.971 248.248C362.152 248.259 362.301 248.275 362.419 248.296L362.243 249.88C362.125 249.848 361.987 249.821 361.827 249.8C361.667 249.779 361.517 249.768 361.379 249.768C361.059 249.768 360.749 249.832 360.451 249.96C360.163 250.077 359.901 250.253 359.667 250.488C359.432 250.712 359.245 250.989 359.107 251.32C358.979 251.651 358.915 252.029 358.915 252.456V257H357.219V248.376H358.563L358.787 249.912H358.851C359.032 249.603 359.251 249.32 359.507 249.064C359.763 248.808 360.056 248.605 360.387 248.456C360.717 248.296 361.08 248.216 361.475 248.216ZM365.712 248.376V257H364.016V248.376H365.712ZM364.88 245.096C365.136 245.096 365.36 245.171 365.552 245.32C365.744 245.469 365.84 245.72 365.84 246.072C365.84 246.413 365.744 246.664 365.552 246.824C365.36 246.973 365.136 247.048 364.88 247.048C364.602 247.048 364.368 246.973 364.176 246.824C363.994 246.664 363.904 246.413 363.904 246.072C363.904 245.72 363.994 245.469 364.176 245.32C364.368 245.171 364.602 245.096 364.88 245.096ZM375.975 252.68C375.975 253.395 375.879 254.029 375.687 254.584C375.495 255.139 375.223 255.608 374.871 255.992C374.519 256.376 374.092 256.669 373.591 256.872C373.09 257.064 372.524 257.16 371.895 257.16C371.319 257.16 370.786 257.064 370.295 256.872C369.804 256.669 369.378 256.376 369.015 255.992C368.663 255.608 368.386 255.139 368.183 254.584C367.98 254.029 367.879 253.389 367.879 252.664C367.879 251.715 368.039 250.909 368.359 250.248C368.69 249.587 369.159 249.085 369.767 248.744C370.386 248.392 371.111 248.216 371.943 248.216C372.732 248.216 373.426 248.392 374.023 248.744C374.631 249.085 375.106 249.587 375.447 250.248C375.799 250.909 375.975 251.72 375.975 252.68ZM369.623 252.68C369.623 253.32 369.703 253.875 369.863 254.344C370.023 254.803 370.274 255.155 370.615 255.4C370.956 255.645 371.394 255.768 371.927 255.768C372.46 255.768 372.898 255.645 373.239 255.4C373.58 255.155 373.831 254.803 373.991 254.344C374.151 253.875 374.231 253.32 374.231 252.68C374.231 252.019 374.146 251.464 373.975 251.016C373.815 250.568 373.564 250.227 373.223 249.992C372.892 249.747 372.455 249.624 371.911 249.624C371.111 249.624 370.53 249.891 370.167 250.424C369.804 250.957 369.623 251.709 369.623 252.68ZM383.853 254.568C383.853 255.133 383.714 255.608 383.437 255.992C383.16 256.376 382.76 256.669 382.237 256.872C381.714 257.064 381.085 257.16 380.349 257.16C379.741 257.16 379.218 257.112 378.781 257.016C378.354 256.931 377.96 256.803 377.597 256.632V255.144C377.981 255.325 378.424 255.491 378.925 255.64C379.426 255.779 379.917 255.848 380.397 255.848C381.037 255.848 381.496 255.747 381.773 255.544C382.061 255.341 382.205 255.069 382.205 254.728C382.205 254.536 382.152 254.365 382.045 254.216C381.938 254.056 381.736 253.896 381.437 253.736C381.149 253.565 380.722 253.373 380.157 253.16C379.613 252.936 379.149 252.717 378.765 252.504C378.381 252.28 378.088 252.019 377.885 251.72C377.682 251.411 377.581 251.016 377.581 250.536C377.581 249.789 377.88 249.219 378.477 248.824C379.085 248.419 379.885 248.216 380.877 248.216C381.4 248.216 381.89 248.269 382.349 248.376C382.818 248.472 383.272 248.621 383.709 248.824L383.149 250.12C382.904 250.003 382.648 249.907 382.381 249.832C382.125 249.747 381.864 249.677 381.597 249.624C381.341 249.571 381.074 249.544 380.797 249.544C380.285 249.544 379.896 249.624 379.629 249.784C379.362 249.944 379.229 250.168 379.229 250.456C379.229 250.659 379.288 250.835 379.405 250.984C379.533 251.133 379.752 251.283 380.061 251.432C380.37 251.581 380.792 251.763 381.325 251.976C381.858 252.179 382.312 252.387 382.685 252.6C383.069 252.813 383.357 253.075 383.549 253.384C383.752 253.693 383.853 254.088 383.853 254.568Z" fill="black"/>
<path d="M5.31001 72.8767C54.5865 169.074 150.694 178.564 135.904 285.907" stroke="#373435" stroke-width="10"/>
<rect x="119" y="86" width="24" height="20" fill="#D9D9D9"/>
<rect x="119" y="119" width="24" height="20" fill="#D9D9D9"/>
<rect x="77" y="86" width="24" height="20" fill="#D9D9D9"/>
<defs>
<filter id="filter0_d_1_141" x="193.216" y="21.664" width="209.312" height="54.976" filterUnits="userSpaceOnUse" color-interpolation-filters="sRGB">
<feFlood flood-opacity="0" result="BackgroundImageFix"/>
<feColorMatrix in="SourceAlpha" type="matrix" values="0 0 0 0 0 0 0 0 0 0 0 0 0 0 0 0 0 0 127 0" result="hardAlpha"/>
<feOffset dy="4"/>
<feGaussianBlur stdDeviation="2"/>
<feComposite in2="hardAlpha" operator="out"/>
<feColorMatrix type="matrix" values="0 0 0 0 0 0 0 0 0 0 0 0 0 0 0 0 0 0 0.25 0"/>
<feBlend mode="normal" in2="BackgroundImageFix" result="effect1_dropShadow_1_141"/>
<feBlend mode="normal" in="SourceGraphic" in2="effect1_dropShadow_1_141" result="shape"/>
</filter>
<filter id="filter1_d_1_141" x="192" y="80" width="208" height="14" filterUnits="userSpaceOnUse" color-interpolation-filters="sRGB">
<feFlood flood-opacity="0" result="BackgroundImageFix"/>
<feColorMatrix in="SourceAlpha" type="matrix" values="0 0 0 0 0 0 0 0 0 0 0 0 0 0 0 0 0 0 127 0" result="hardAlpha"/>
<feOffset dy="4"/>
<feGaussianBlur stdDeviation="2"/>
<feComposite in2="hardAlpha" operator="out"/>
<feColorMatrix type="matrix" values="0 0 0 0 0 0 0 0 0 0 0 0 0 0 0 0 0 0 0.25 0"/>
<feBlend mode="normal" in2="BackgroundImageFix" result="effect1_dropShadow_1_141"/>
<feBlend mode="normal" in="SourceGraphic" in2="effect1_dropShadow_1_141" result="shape"/>
</filter>
</defs>
</svg>
