<svg width="210" height="56" viewBox="0 0 210 56" fill="none" xmlns="http://www.w3.org/2000/svg">
<g filter="url(#filter0_d_1_69)">
<path d="M14.84 47.64C12.6213 47.64 10.6587 47.4693 8.952 47.128C7.288 46.7867 5.70933 46.2747 4.216 45.592V39.96C5.06933 40.3867 6.02933 40.8133 7.096 41.24C8.16267 41.6667 9.336 42.008 10.616 42.264C11.9387 42.52 13.368 42.648 14.904 42.648C16.3547 42.648 17.72 42.4987 19 42.2C20.28 41.8587 21.4107 41.3467 22.392 40.664C23.3733 39.9387 24.1413 39.0427 24.696 37.976C25.2933 36.9093 25.592 35.6507 25.592 34.2C25.592 33.048 25.336 32.024 24.824 31.128C24.3547 30.232 23.5653 29.3573 22.456 28.504C21.3467 27.608 19.8747 26.648 18.04 25.624C16.4187 24.6427 14.968 23.64 13.688 22.616C12.4507 21.5493 11.4693 20.3333 10.744 18.968C10.0613 17.56 9.72 15.8747 9.72 13.912C9.72 11.7787 10.104 9.90133 10.872 8.28C11.6827 6.65867 12.7707 5.272 14.136 4.12C15.544 2.968 17.144 2.11466 18.936 1.56C20.7707 0.962664 22.712 0.663998 24.76 0.663998C27.1493 0.663998 29.24 0.898664 31.032 1.368C32.8667 1.83733 34.5947 2.49866 36.216 3.352L34.04 8.216C32.9307 7.61867 31.544 7.064 29.88 6.552C28.216 5.99733 26.5093 5.72 24.76 5.72C23.4373 5.72 22.2213 5.89066 21.112 6.232C20.0453 6.57333 19.1067 7.08533 18.296 7.768C17.528 8.45067 16.9093 9.28267 16.44 10.264C16.0133 11.2027 15.8 12.2907 15.8 13.528C15.8 14.808 16.0347 15.896 16.504 16.792C16.9733 17.6453 17.6987 18.4347 18.68 19.16C19.6613 19.8427 20.8773 20.632 22.328 21.528C24.1627 22.6373 25.7627 23.7253 27.128 24.792C28.536 25.8587 29.624 27.096 30.392 28.504C31.2027 29.912 31.608 31.6613 31.608 33.752C31.608 36.056 31.2027 38.0827 30.392 39.832C29.624 41.5387 28.4933 42.968 27 44.12C25.5493 45.272 23.7787 46.1467 21.688 46.744C19.64 47.3413 17.3573 47.64 14.84 47.64ZM45.0405 47L53.6165 6.36H41.0725L42.1605 1.304H73.0085L71.9845 6.36H59.4405L50.8005 47H45.0405ZM60.5395 47L85.3715 1.304H91.3875L97.0195 47H91.3875L89.6595 32.792H74.2355L66.8115 47H60.5395ZM76.9875 27.672H89.0835L88.0595 18.072C87.8888 16.4507 87.7182 14.6587 87.5475 12.696C87.4195 10.7333 87.3342 9.00533 87.2915 7.512H87.0995C86.4168 9.13333 85.6275 10.8827 84.7315 12.76C83.8355 14.5947 82.8968 16.4507 81.9155 18.328L76.9875 27.672ZM106.666 47L115.242 6.36H102.698L103.786 1.304H134.634L133.61 6.36H121.066L112.426 47H106.666ZM148.2 47.64C145.043 47.64 142.397 47.1493 140.264 46.168C138.173 45.1867 136.616 43.7573 135.592 41.88C134.568 40.0027 134.056 37.6987 134.056 34.968C134.056 34.2427 134.12 33.3467 134.248 32.28C134.376 31.2133 134.568 30.0827 134.824 28.888L140.712 1.304H146.408L140.456 29.208C140.243 30.1893 140.072 31.2133 139.944 32.28C139.816 33.3467 139.752 34.2213 139.752 34.904C139.752 37.2933 140.477 39.1707 141.928 40.536C143.421 41.9013 145.619 42.584 148.52 42.584C151.037 42.584 153.107 42.1573 154.728 41.304C156.392 40.408 157.715 39.1067 158.696 37.4C159.677 35.6507 160.445 33.5173 161 31L167.336 1.304H173.032L166.632 31.448C165.949 34.776 164.861 37.656 163.368 40.088C161.917 42.52 159.955 44.3973 157.48 45.72C155.005 47 151.912 47.64 148.2 47.64ZM184.153 47.64C181.934 47.64 179.971 47.4693 178.265 47.128C176.601 46.7867 175.022 46.2747 173.529 45.592V39.96C174.382 40.3867 175.342 40.8133 176.409 41.24C177.475 41.6667 178.649 42.008 179.929 42.264C181.251 42.52 182.681 42.648 184.217 42.648C185.667 42.648 187.033 42.4987 188.312 42.2C189.593 41.8587 190.723 41.3467 191.705 40.664C192.686 39.9387 193.454 39.0427 194.009 37.976C194.606 36.9093 194.905 35.6507 194.905 34.2C194.905 33.048 194.649 32.024 194.137 31.128C193.667 30.232 192.878 29.3573 191.769 28.504C190.659 27.608 189.187 26.648 187.353 25.624C185.731 24.6427 184.281 23.64 183.001 22.616C181.763 21.5493 180.782 20.3333 180.057 18.968C179.374 17.56 179.033 15.8747 179.033 13.912C179.033 11.7787 179.417 9.90133 180.185 8.28C180.995 6.65867 182.083 5.272 183.449 4.12C184.857 2.968 186.457 2.11466 188.249 1.56C190.083 0.962664 192.025 0.663998 194.073 0.663998C196.462 0.663998 198.553 0.898664 200.345 1.368C202.179 1.83733 203.907 2.49866 205.529 3.352L203.353 8.216C202.243 7.61867 200.857 7.064 199.193 6.552C197.529 5.99733 195.822 5.72 194.073 5.72C192.75 5.72 191.534 5.89066 190.425 6.232C189.358 6.57333 188.419 7.08533 187.609 7.768C186.841 8.45067 186.222 9.28267 185.753 10.264C185.326 11.2027 185.113 12.2907 185.113 13.528C185.113 14.808 185.347 15.896 185.817 16.792C186.286 17.6453 187.011 18.4347 187.993 19.16C188.974 19.8427 190.19 20.632 191.641 21.528C193.475 22.6373 195.075 23.7253 196.441 24.792C197.849 25.8587 198.937 27.096 199.705 28.504C200.515 29.912 200.921 31.6613 200.921 33.752C200.921 36.056 200.515 38.0827 199.705 39.832C198.937 41.5387 197.806 42.968 196.313 44.12C194.862 45.272 193.091 46.1467 191.001 46.744C188.953 47.3413 186.67 47.64 184.153 47.64Z" fill="black"/>
</g>
<defs>
<filter id="filter0_d_1_69" x="0.216003" y="0.664001" width="209.312" height="54.976" filterUnits="userSpaceOnUse" color-interpolation-filters="sRGB">
<feFlood flood-opacity="0" result="BackgroundImageFix"/>
<feColorMatrix in="SourceAlpha" type="matrix" values="0 0 0 0 0 0 0 0 0 0 0 0 0 0 0 0 0 0 127 0" result="hardAlpha"/>
<feOffset dy="4"/>
<feGaussianBlur stdDeviation="2"/>
<feComposite in2="hardAlpha" operator="out"/>
<feColorMatrix type="matrix" values="0 0 0 0 0 0 0 0 0 0 0 0 0 0 0 0 0 0 0.25 0"/>
<feBlend mode="normal" in2="BackgroundImageFix" result="effect1_dropShadow_1_69"/>
<feBlend mode="normal" in="SourceGraphic" in2="effect1_dropShadow_1_69" result="shape"/>
</filter>
</defs>
</svg>
