<svg width="403" height="275" viewBox="0 0 403 275" fill="none" xmlns="http://www.w3.org/2000/svg">
<rect width="403" height="275" fill="#F5F5F5"/>
<path d="M10.31 58.8767C60.0241 155.819 156.362 165.701 141.917 273.631" stroke="#C42626" stroke-width="10"/>
<path d="M168.768 55.5309V232.875" stroke="#373435" stroke-width="10" stroke-linecap="round"/>
<path d="M143.016 55.5309L165.633 55.1292" stroke="#373435" stroke-width="10" stroke-linecap="round"/>
<path d="M143.016 55.5309C143.016 43.2581 143.016 30.9853 143.016 18.7124C143.016 16.733 143.016 14.7535 143.016 12.774C143.016 11.4783 143.016 10.1827 143.016 8.88699C143.016 5.41692 142.355 5.89822 138.644 5.48587" stroke="#373435" stroke-width="10" stroke-linecap="round"/>
<path d="M85.1975 5H140.101" stroke="#373435" stroke-width="10" stroke-linecap="round"/>
<path d="M83.7398 6.94348V41.4405" stroke="#373435" stroke-width="10" stroke-linecap="round"/>
<path d="M44.384 41.4406L83.6327 41.1292" stroke="#373435" stroke-width="10" stroke-linecap="round"/>
<path d="M44.384 43.384V58.4461" stroke="#373435" stroke-width="10" stroke-linecap="round"/>
<path d="M5 59.4461L43.6327 59.1291" stroke="#373435" stroke-width="10" stroke-linecap="round"/>
<path d="M169.254 92.9432H204.722" stroke="#373435" stroke-width="10" stroke-linecap="round"/>
<path d="M204.633 93.1292L204.722 268.83" stroke="#373435" stroke-width="10" stroke-linecap="round"/>
<g filter="url(#filter0_d_0_1)">
<path d="M207.84 55.64C205.621 55.64 203.659 55.4693 201.952 55.128C200.288 54.7867 198.709 54.2747 197.216 53.592V47.96C198.069 48.3867 199.029 48.8133 200.096 49.24C201.163 49.6667 202.336 50.008 203.616 50.264C204.939 50.52 206.368 50.648 207.904 50.648C209.355 50.648 210.72 50.4987 212 50.2C213.28 49.8587 214.411 49.3467 215.392 48.664C216.373 47.9387 217.141 47.0427 217.696 45.976C218.293 44.9093 218.592 43.6507 218.592 42.2C218.592 41.048 218.336 40.024 217.824 39.128C217.355 38.232 216.565 37.3573 215.456 36.504C214.347 35.608 212.875 34.648 211.04 33.624C209.419 32.6427 207.968 31.64 206.688 30.616C205.451 29.5493 204.469 28.3333 203.744 26.968C203.061 25.56 202.72 23.8747 202.72 21.912C202.72 19.7787 203.104 17.9013 203.872 16.28C204.683 14.6587 205.771 13.272 207.136 12.12C208.544 10.968 210.144 10.1147 211.936 9.56C213.771 8.96266 215.712 8.664 217.76 8.664C220.149 8.664 222.24 8.89866 224.032 9.368C225.867 9.83733 227.595 10.4987 229.216 11.352L227.04 16.216C225.931 15.6187 224.544 15.064 222.88 14.552C221.216 13.9973 219.509 13.72 217.76 13.72C216.437 13.72 215.221 13.8907 214.112 14.232C213.045 14.5733 212.107 15.0853 211.296 15.768C210.528 16.4507 209.909 17.2827 209.44 18.264C209.013 19.2027 208.8 20.2907 208.8 21.528C208.8 22.808 209.035 23.896 209.504 24.792C209.973 25.6453 210.699 26.4347 211.68 27.16C212.661 27.8427 213.877 28.632 215.328 29.528C217.163 30.6373 218.763 31.7253 220.128 32.792C221.536 33.8587 222.624 35.096 223.392 36.504C224.203 37.912 224.608 39.6613 224.608 41.752C224.608 44.056 224.203 46.0827 223.392 47.832C222.624 49.5387 221.493 50.968 220 52.12C218.549 53.272 216.779 54.1467 214.688 54.744C212.64 55.3413 210.357 55.64 207.84 55.64ZM238.041 55L246.617 14.36H234.073L235.161 9.304H266.009L264.985 14.36H252.441L243.801 55H238.041ZM253.539 55L278.372 9.304H284.388L290.02 55H284.388L282.66 40.792H267.236L259.812 55H253.539ZM269.988 35.672H282.084L281.06 26.072C280.889 24.4507 280.718 22.6587 280.548 20.696C280.42 18.7333 280.334 17.0053 280.292 15.512H280.1C279.417 17.1333 278.628 18.8827 277.732 20.76C276.836 22.5947 275.897 24.4507 274.916 26.328L269.988 35.672ZM299.666 55L308.242 14.36H295.698L296.786 9.304H327.634L326.61 14.36H314.066L305.426 55H299.666ZM341.2 55.64C338.043 55.64 335.397 55.1493 333.264 54.168C331.173 53.1867 329.616 51.7573 328.592 49.88C327.568 48.0027 327.056 45.6987 327.056 42.968C327.056 42.2427 327.12 41.3467 327.248 40.28C327.376 39.2133 327.568 38.0827 327.824 36.888L333.712 9.304H339.408L333.456 37.208C333.243 38.1893 333.072 39.2133 332.944 40.28C332.816 41.3467 332.752 42.2213 332.752 42.904C332.752 45.2933 333.477 47.1707 334.928 48.536C336.421 49.9013 338.619 50.584 341.52 50.584C344.037 50.584 346.107 50.1573 347.728 49.304C349.392 48.408 350.715 47.1067 351.696 45.4C352.677 43.6507 353.445 41.5173 354 39L360.336 9.304H366.032L359.632 39.448C358.949 42.776 357.861 45.656 356.368 48.088C354.917 50.52 352.955 52.3973 350.48 53.72C348.005 55 344.912 55.64 341.2 55.64ZM377.153 55.64C374.934 55.64 372.971 55.4693 371.265 55.128C369.601 54.7867 368.022 54.2747 366.529 53.592V47.96C367.382 48.3867 368.342 48.8133 369.409 49.24C370.475 49.6667 371.649 50.008 372.929 50.264C374.251 50.52 375.681 50.648 377.217 50.648C378.667 50.648 380.033 50.4987 381.312 50.2C382.593 49.8587 383.723 49.3467 384.705 48.664C385.686 47.9387 386.454 47.0427 387.009 45.976C387.606 44.9093 387.905 43.6507 387.905 42.2C387.905 41.048 387.649 40.024 387.137 39.128C386.667 38.232 385.878 37.3573 384.769 36.504C383.659 35.608 382.187 34.648 380.353 33.624C378.731 32.6427 377.281 31.64 376.001 30.616C374.763 29.5493 373.782 28.3333 373.057 26.968C372.374 25.56 372.033 23.8747 372.033 21.912C372.033 19.7787 372.417 17.9013 373.185 16.28C373.995 14.6587 375.083 13.272 376.449 12.12C377.857 10.968 379.457 10.1147 381.249 9.56C383.083 8.96266 385.025 8.664 387.073 8.664C389.462 8.664 391.553 8.89866 393.345 9.368C395.179 9.83733 396.907 10.4987 398.529 11.352L396.353 16.216C395.243 15.6187 393.857 15.064 392.193 14.552C390.529 13.9973 388.822 13.72 387.073 13.72C385.75 13.72 384.534 13.8907 383.425 14.232C382.358 14.5733 381.419 15.0853 380.609 15.768C379.841 16.4507 379.222 17.2827 378.753 18.264C378.326 19.2027 378.113 20.2907 378.113 21.528C378.113 22.808 378.347 23.896 378.817 24.792C379.286 25.6453 380.011 26.4347 380.993 27.16C381.974 27.8427 383.19 28.632 384.641 29.528C386.475 30.6373 388.075 31.7253 389.441 32.792C390.849 33.8587 391.937 35.096 392.705 36.504C393.515 37.912 393.921 39.6613 393.921 41.752C393.921 44.056 393.515 46.0827 392.705 47.832C391.937 49.5387 390.806 50.968 389.313 52.12C387.862 53.272 386.091 54.1467 384.001 54.744C381.953 55.3413 379.67 55.64 377.153 55.64Z" fill="black"/>
</g>
<g filter="url(#filter1_d_0_1)">
<line x1="196" y1="70" x2="396" y2="70" stroke="#EF1B1B" stroke-width="6"/>
</g>
<path d="M226.64 116L225.424 112.704H221.008L219.792 116H218L222.336 104.528H224.128L228.448 116H226.64ZM223.792 107.984C223.76 107.867 223.701 107.691 223.616 107.456C223.541 107.211 223.467 106.965 223.392 106.72C223.317 106.464 223.259 106.256 223.216 106.096C223.163 106.309 223.099 106.544 223.024 106.8C222.96 107.045 222.896 107.275 222.832 107.488C222.768 107.691 222.715 107.856 222.672 107.984L221.52 111.2H224.944L223.792 107.984ZM232.757 116.16C231.722 116.16 230.885 115.787 230.245 115.04C229.615 114.293 229.301 113.184 229.301 111.712C229.301 110.229 229.621 109.109 230.261 108.352C230.901 107.595 231.743 107.216 232.789 107.216C233.226 107.216 233.605 107.275 233.925 107.392C234.255 107.499 234.538 107.648 234.773 107.84C235.018 108.032 235.226 108.245 235.397 108.48H235.493C235.471 108.331 235.445 108.117 235.413 107.84C235.381 107.552 235.365 107.296 235.365 107.072V103.84H237.061V116H235.733L235.445 114.848H235.365C235.205 115.093 235.002 115.317 234.757 115.52C234.522 115.712 234.239 115.867 233.909 115.984C233.578 116.101 233.194 116.16 232.757 116.16ZM233.157 114.768C233.989 114.768 234.575 114.539 234.917 114.08C235.258 113.611 235.429 112.912 235.429 111.984V111.728C235.429 110.715 235.263 109.941 234.933 109.408C234.613 108.875 234.015 108.608 233.141 108.608C232.447 108.608 231.925 108.891 231.573 109.456C231.221 110.011 231.045 110.773 231.045 111.744C231.045 112.715 231.221 113.461 231.573 113.984C231.925 114.507 232.453 114.768 233.157 114.768ZM249.383 107.216C250.353 107.216 251.084 107.467 251.575 107.968C252.065 108.469 252.311 109.275 252.311 110.384V116H250.615V110.608C250.615 109.947 250.481 109.451 250.215 109.12C249.959 108.779 249.553 108.608 248.999 108.608C248.231 108.608 247.681 108.848 247.351 109.328C247.02 109.797 246.855 110.48 246.855 111.376V116H245.175V110.608C245.175 110.171 245.111 109.803 244.983 109.504C244.865 109.205 244.689 108.981 244.455 108.832C244.22 108.683 243.916 108.608 243.543 108.608C243.009 108.608 242.588 108.725 242.279 108.96C241.969 109.195 241.745 109.541 241.607 110C241.479 110.448 241.415 110.997 241.415 111.648V116H239.719V107.376H241.063L241.303 108.528H241.399C241.58 108.229 241.799 107.984 242.055 107.792C242.321 107.6 242.615 107.456 242.935 107.36C243.255 107.264 243.585 107.216 243.927 107.216C244.577 107.216 245.127 107.333 245.575 107.568C246.023 107.792 246.348 108.139 246.551 108.608H246.679C246.956 108.128 247.34 107.776 247.831 107.552C248.321 107.328 248.839 107.216 249.383 107.216ZM254.666 115.056C254.666 114.64 254.773 114.347 254.986 114.176C255.199 114.005 255.455 113.92 255.754 113.92C256.063 113.92 256.325 114.005 256.538 114.176C256.751 114.347 256.858 114.64 256.858 115.056C256.858 115.472 256.751 115.771 256.538 115.952C256.325 116.133 256.063 116.224 255.754 116.224C255.455 116.224 255.199 116.133 254.986 115.952C254.773 115.771 254.666 115.472 254.666 115.056ZM266.397 116.16C265.363 116.16 264.525 115.787 263.885 115.04C263.256 114.293 262.941 113.184 262.941 111.712C262.941 110.229 263.261 109.109 263.901 108.352C264.541 107.595 265.384 107.216 266.429 107.216C266.867 107.216 267.245 107.275 267.565 107.392C267.896 107.499 268.179 107.648 268.413 107.84C268.659 108.032 268.867 108.245 269.037 108.48H269.133C269.112 108.331 269.085 108.117 269.053 107.84C269.021 107.552 269.005 107.296 269.005 107.072V103.84H270.701V116H269.373L269.085 114.848H269.005C268.845 115.093 268.643 115.317 268.397 115.52C268.163 115.712 267.88 115.867 267.549 115.984C267.219 116.101 266.835 116.16 266.397 116.16ZM266.797 114.768C267.629 114.768 268.216 114.539 268.557 114.08C268.899 113.611 269.069 112.912 269.069 111.984V111.728C269.069 110.715 268.904 109.941 268.573 109.408C268.253 108.875 267.656 108.608 266.781 108.608C266.088 108.608 265.565 108.891 265.213 109.456C264.861 110.011 264.685 110.773 264.685 111.744C264.685 112.715 264.861 113.461 265.213 113.984C265.565 114.507 266.093 114.768 266.797 114.768ZM276.751 107.216C277.509 107.216 278.159 107.376 278.703 107.696C279.247 108.005 279.663 108.453 279.951 109.04C280.25 109.627 280.399 110.32 280.399 111.12V112.048H274.607C274.629 112.933 274.858 113.611 275.295 114.08C275.743 114.549 276.367 114.784 277.167 114.784C277.722 114.784 278.213 114.736 278.639 114.64C279.077 114.533 279.525 114.379 279.983 114.176V115.584C279.557 115.776 279.119 115.92 278.671 116.016C278.234 116.112 277.711 116.16 277.103 116.16C276.271 116.16 275.535 115.995 274.895 115.664C274.255 115.333 273.754 114.843 273.391 114.192C273.039 113.531 272.863 112.72 272.863 111.76C272.863 110.789 273.023 109.968 273.343 109.296C273.674 108.624 274.127 108.112 274.703 107.76C275.29 107.397 275.973 107.216 276.751 107.216ZM276.751 108.528C276.143 108.528 275.653 108.725 275.279 109.12C274.917 109.515 274.703 110.075 274.639 110.8H278.703C278.703 110.352 278.634 109.957 278.495 109.616C278.357 109.275 278.143 109.008 277.855 108.816C277.567 108.624 277.199 108.528 276.751 108.528ZM291.744 105.904C291.178 105.904 290.672 106.005 290.224 106.208C289.776 106.4 289.392 106.688 289.072 107.072C288.762 107.456 288.522 107.92 288.352 108.464C288.192 109.008 288.112 109.621 288.112 110.304C288.112 111.2 288.245 111.979 288.512 112.64C288.778 113.291 289.178 113.792 289.712 114.144C290.245 114.496 290.917 114.672 291.728 114.672C292.218 114.672 292.688 114.629 293.136 114.544C293.594 114.448 294.058 114.325 294.528 114.176V115.664C294.08 115.835 293.621 115.957 293.152 116.032C292.682 116.117 292.138 116.16 291.52 116.16C290.357 116.16 289.386 115.92 288.608 115.44C287.84 114.96 287.264 114.277 286.88 113.392C286.496 112.507 286.304 111.472 286.304 110.288C286.304 109.424 286.421 108.635 286.656 107.92C286.901 107.195 287.253 106.571 287.712 106.048C288.17 105.525 288.736 105.125 289.408 104.848C290.09 104.56 290.874 104.416 291.76 104.416C292.336 104.416 292.901 104.48 293.456 104.608C294.01 104.725 294.512 104.896 294.96 105.12L294.32 106.56C293.946 106.389 293.541 106.24 293.104 106.112C292.677 105.973 292.224 105.904 291.744 105.904ZM304.397 111.68C304.397 112.395 304.301 113.029 304.109 113.584C303.917 114.139 303.645 114.608 303.293 114.992C302.941 115.376 302.514 115.669 302.013 115.872C301.511 116.064 300.946 116.16 300.317 116.16C299.741 116.16 299.207 116.064 298.717 115.872C298.226 115.669 297.799 115.376 297.437 114.992C297.085 114.608 296.807 114.139 296.605 113.584C296.402 113.029 296.301 112.389 296.301 111.664C296.301 110.715 296.461 109.909 296.781 109.248C297.111 108.587 297.581 108.085 298.189 107.744C298.807 107.392 299.533 107.216 300.365 107.216C301.154 107.216 301.847 107.392 302.445 107.744C303.053 108.085 303.527 108.587 303.869 109.248C304.221 109.909 304.397 110.72 304.397 111.68ZM298.045 111.68C298.045 112.32 298.125 112.875 298.285 113.344C298.445 113.803 298.695 114.155 299.037 114.4C299.378 114.645 299.815 114.768 300.349 114.768C300.882 114.768 301.319 114.645 301.661 114.4C302.002 114.155 302.253 113.803 302.413 113.344C302.573 112.875 302.653 112.32 302.653 111.68C302.653 111.019 302.567 110.464 302.397 110.016C302.237 109.568 301.986 109.227 301.645 108.992C301.314 108.747 300.877 108.624 300.333 108.624C299.533 108.624 298.951 108.891 298.589 109.424C298.226 109.957 298.045 110.709 298.045 111.68ZM310.915 107.216C311.917 107.216 312.685 107.467 313.219 107.968C313.752 108.469 314.019 109.275 314.019 110.384V116H312.339V110.624C312.339 109.952 312.195 109.451 311.907 109.12C311.629 108.779 311.181 108.608 310.563 108.608C309.688 108.608 309.08 108.869 308.739 109.392C308.408 109.915 308.243 110.667 308.243 111.648V116H306.547V107.376H307.891L308.131 108.528H308.227C308.419 108.229 308.653 107.984 308.931 107.792C309.208 107.6 309.517 107.456 309.859 107.36C310.2 107.264 310.552 107.216 310.915 107.216ZM319.585 116.16C318.55 116.16 317.713 115.787 317.073 115.04C316.444 114.293 316.129 113.184 316.129 111.712C316.129 110.229 316.449 109.109 317.089 108.352C317.729 107.595 318.572 107.216 319.617 107.216C320.054 107.216 320.433 107.275 320.753 107.392C321.084 107.499 321.366 107.648 321.601 107.84C321.846 108.032 322.054 108.245 322.225 108.48H322.321C322.3 108.331 322.273 108.117 322.241 107.84C322.209 107.552 322.193 107.296 322.193 107.072V103.84H323.889V116H322.561L322.273 114.848H322.193C322.033 115.093 321.83 115.317 321.585 115.52C321.35 115.712 321.068 115.867 320.737 115.984C320.406 116.101 320.022 116.16 319.585 116.16ZM319.985 114.768C320.817 114.768 321.404 114.539 321.745 114.08C322.086 113.611 322.257 112.912 322.257 111.984V111.728C322.257 110.715 322.092 109.941 321.761 109.408C321.441 108.875 320.844 108.608 319.969 108.608C319.276 108.608 318.753 108.891 318.401 109.456C318.049 110.011 317.873 110.773 317.873 111.744C317.873 112.715 318.049 113.461 318.401 113.984C318.753 114.507 319.281 114.768 319.985 114.768ZM334.147 111.68C334.147 112.395 334.051 113.029 333.859 113.584C333.667 114.139 333.395 114.608 333.043 114.992C332.691 115.376 332.264 115.669 331.763 115.872C331.261 116.064 330.696 116.16 330.067 116.16C329.491 116.16 328.957 116.064 328.467 115.872C327.976 115.669 327.549 115.376 327.187 114.992C326.835 114.608 326.557 114.139 326.355 113.584C326.152 113.029 326.051 112.389 326.051 111.664C326.051 110.715 326.211 109.909 326.531 109.248C326.861 108.587 327.331 108.085 327.939 107.744C328.557 107.392 329.283 107.216 330.115 107.216C330.904 107.216 331.597 107.392 332.195 107.744C332.803 108.085 333.277 108.587 333.619 109.248C333.971 109.909 334.147 110.72 334.147 111.68ZM327.795 111.68C327.795 112.32 327.875 112.875 328.035 113.344C328.195 113.803 328.445 114.155 328.787 114.4C329.128 114.645 329.565 114.768 330.099 114.768C330.632 114.768 331.069 114.645 331.411 114.4C331.752 114.155 332.003 113.803 332.163 113.344C332.323 112.875 332.403 112.32 332.403 111.68C332.403 111.019 332.317 110.464 332.147 110.016C331.987 109.568 331.736 109.227 331.395 108.992C331.064 108.747 330.627 108.624 330.083 108.624C329.283 108.624 328.701 108.891 328.339 109.424C327.976 109.957 327.795 110.709 327.795 111.68ZM345.961 107.216C346.931 107.216 347.662 107.467 348.153 107.968C348.643 108.469 348.889 109.275 348.889 110.384V116H347.193V110.608C347.193 109.947 347.059 109.451 346.793 109.12C346.537 108.779 346.131 108.608 345.577 108.608C344.809 108.608 344.259 108.848 343.929 109.328C343.598 109.797 343.433 110.48 343.433 111.376V116H341.753V110.608C341.753 110.171 341.689 109.803 341.561 109.504C341.443 109.205 341.267 108.981 341.033 108.832C340.798 108.683 340.494 108.608 340.121 108.608C339.587 108.608 339.166 108.725 338.857 108.96C338.547 109.195 338.323 109.541 338.185 110C338.057 110.448 337.993 110.997 337.993 111.648V116H336.297V107.376H337.641L337.881 108.528H337.977C338.158 108.229 338.377 107.984 338.633 107.792C338.899 107.6 339.193 107.456 339.513 107.36C339.833 107.264 340.163 107.216 340.505 107.216C341.155 107.216 341.705 107.333 342.153 107.568C342.601 107.792 342.926 108.139 343.129 108.608H343.257C343.534 108.128 343.918 107.776 344.409 107.552C344.899 107.328 345.417 107.216 345.961 107.216ZM353.18 116H351.484V107.376H353.18V116ZM355.004 103.904C354.887 104.053 354.727 104.235 354.524 104.448C354.332 104.661 354.114 104.885 353.868 105.12C353.634 105.344 353.399 105.563 353.164 105.776C352.93 105.979 352.716 106.155 352.524 106.304H351.404V106.112C351.564 105.909 351.746 105.669 351.948 105.392C352.151 105.115 352.348 104.832 352.54 104.544C352.732 104.245 352.892 103.979 353.02 103.744H355.004V103.904ZM360.212 107.216C361.214 107.216 361.982 107.467 362.516 107.968C363.049 108.469 363.316 109.275 363.316 110.384V116H361.636V110.624C361.636 109.952 361.492 109.451 361.204 109.12C360.926 108.779 360.478 108.608 359.86 108.608C358.985 108.608 358.377 108.869 358.036 109.392C357.705 109.915 357.54 110.667 357.54 111.648V116H355.844V107.376H357.188L357.428 108.528H357.524C357.716 108.229 357.95 107.984 358.228 107.792C358.505 107.6 358.814 107.456 359.156 107.36C359.497 107.264 359.849 107.216 360.212 107.216ZM367.618 107.376V116H365.922V107.376H367.618ZM366.786 104.096C367.042 104.096 367.266 104.171 367.458 104.32C367.65 104.469 367.746 104.72 367.746 105.072C367.746 105.413 367.65 105.664 367.458 105.824C367.266 105.973 367.042 106.048 366.786 106.048C366.508 106.048 366.274 105.973 366.082 105.824C365.9 105.664 365.81 105.413 365.81 105.072C365.81 104.72 365.9 104.469 366.082 104.32C366.274 104.171 366.508 104.096 366.786 104.096ZM377.881 111.68C377.881 112.395 377.785 113.029 377.593 113.584C377.401 114.139 377.129 114.608 376.777 114.992C376.425 115.376 375.998 115.669 375.497 115.872C374.996 116.064 374.43 116.16 373.801 116.16C373.225 116.16 372.692 116.064 372.201 115.872C371.71 115.669 371.284 115.376 370.921 114.992C370.569 114.608 370.292 114.139 370.089 113.584C369.886 113.029 369.785 112.389 369.785 111.664C369.785 110.715 369.945 109.909 370.265 109.248C370.596 108.587 371.065 108.085 371.673 107.744C372.292 107.392 373.017 107.216 373.849 107.216C374.638 107.216 375.332 107.392 375.929 107.744C376.537 108.085 377.012 108.587 377.353 109.248C377.705 109.909 377.881 110.72 377.881 111.68ZM371.529 111.68C371.529 112.32 371.609 112.875 371.769 113.344C371.929 113.803 372.18 114.155 372.521 114.4C372.862 114.645 373.3 114.768 373.833 114.768C374.366 114.768 374.804 114.645 375.145 114.4C375.486 114.155 375.737 113.803 375.897 113.344C376.057 112.875 376.137 112.32 376.137 111.68C376.137 111.019 376.052 110.464 375.881 110.016C375.721 109.568 375.47 109.227 375.129 108.992C374.798 108.747 374.361 108.624 373.817 108.624C373.017 108.624 372.436 108.891 372.073 109.424C371.71 109.957 371.529 110.709 371.529 111.68ZM385.759 113.568C385.759 114.133 385.62 114.608 385.343 114.992C385.066 115.376 384.666 115.669 384.143 115.872C383.62 116.064 382.991 116.16 382.255 116.16C381.647 116.16 381.124 116.112 380.687 116.016C380.26 115.931 379.866 115.803 379.503 115.632V114.144C379.887 114.325 380.33 114.491 380.831 114.64C381.332 114.779 381.823 114.848 382.303 114.848C382.943 114.848 383.402 114.747 383.679 114.544C383.967 114.341 384.111 114.069 384.111 113.728C384.111 113.536 384.058 113.365 383.951 113.216C383.844 113.056 383.642 112.896 383.343 112.736C383.055 112.565 382.628 112.373 382.063 112.16C381.519 111.936 381.055 111.717 380.671 111.504C380.287 111.28 379.994 111.019 379.791 110.72C379.588 110.411 379.487 110.016 379.487 109.536C379.487 108.789 379.786 108.219 380.383 107.824C380.991 107.419 381.791 107.216 382.783 107.216C383.306 107.216 383.796 107.269 384.255 107.376C384.724 107.472 385.178 107.621 385.615 107.824L385.055 109.12C384.81 109.003 384.554 108.907 384.287 108.832C384.031 108.747 383.77 108.677 383.503 108.624C383.247 108.571 382.98 108.544 382.703 108.544C382.191 108.544 381.802 108.624 381.535 108.784C381.268 108.944 381.135 109.168 381.135 109.456C381.135 109.659 381.194 109.835 381.311 109.984C381.439 110.133 381.658 110.283 381.967 110.432C382.276 110.581 382.698 110.763 383.231 110.976C383.764 111.179 384.218 111.387 384.591 111.6C384.975 111.813 385.263 112.075 385.455 112.384C385.658 112.693 385.759 113.088 385.759 113.568ZM228.896 138H226.8L221.024 128.768H220.96C220.971 128.981 220.981 129.211 220.992 129.456C221.013 129.701 221.029 129.963 221.04 130.24C221.051 130.507 221.061 130.784 221.072 131.072C221.083 131.349 221.088 131.632 221.088 131.92V138H219.52V126.576H221.6L227.36 135.76H227.408C227.397 135.6 227.387 135.403 227.376 135.168C227.365 134.923 227.355 134.661 227.344 134.384C227.344 134.107 227.339 133.824 227.328 133.536C227.317 133.248 227.307 132.976 227.296 132.72V126.576H228.896V138ZM235.142 129.216C235.899 129.216 236.55 129.376 237.094 129.696C237.638 130.005 238.054 130.453 238.342 131.04C238.641 131.627 238.79 132.32 238.79 133.12V134.048H232.998C233.019 134.933 233.249 135.611 233.686 136.08C234.134 136.549 234.758 136.784 235.558 136.784C236.113 136.784 236.603 136.736 237.03 136.64C237.467 136.533 237.915 136.379 238.374 136.176V137.584C237.947 137.776 237.51 137.92 237.062 138.016C236.625 138.112 236.102 138.16 235.494 138.16C234.662 138.16 233.926 137.995 233.286 137.664C232.646 137.333 232.145 136.843 231.782 136.192C231.43 135.531 231.254 134.72 231.254 133.76C231.254 132.789 231.414 131.968 231.734 131.296C232.065 130.624 232.518 130.112 233.094 129.76C233.681 129.397 234.363 129.216 235.142 129.216ZM235.142 130.528C234.534 130.528 234.043 130.725 233.67 131.12C233.307 131.515 233.094 132.075 233.03 132.8H237.094C237.094 132.352 237.025 131.957 236.886 131.616C236.747 131.275 236.534 131.008 236.246 130.816C235.958 130.624 235.59 130.528 235.142 130.528ZM243.882 129.216C244.437 129.216 244.938 129.323 245.386 129.536C245.834 129.749 246.213 130.075 246.522 130.512H246.602L246.794 129.376H248.17V138.112C248.17 138.923 248.026 139.605 247.738 140.16C247.45 140.715 247.007 141.131 246.41 141.408C245.823 141.696 245.082 141.84 244.186 141.84C243.567 141.84 242.997 141.797 242.474 141.712C241.951 141.627 241.471 141.493 241.034 141.312V139.824C241.343 139.973 241.669 140.096 242.01 140.192C242.351 140.299 242.714 140.373 243.098 140.416C243.482 140.469 243.877 140.496 244.282 140.496C244.986 140.496 245.53 140.293 245.914 139.888C246.298 139.493 246.49 138.933 246.49 138.208V137.92C246.49 137.781 246.495 137.6 246.506 137.376C246.517 137.141 246.527 136.971 246.538 136.864H246.474C246.175 137.312 245.807 137.643 245.37 137.856C244.943 138.059 244.447 138.16 243.882 138.16C242.794 138.16 241.941 137.771 241.322 136.992C240.714 136.203 240.41 135.109 240.41 133.712C240.41 132.773 240.549 131.973 240.826 131.312C241.103 130.64 241.498 130.123 242.01 129.76C242.533 129.397 243.157 129.216 243.882 129.216ZM244.234 130.624C243.786 130.624 243.407 130.747 243.098 130.992C242.789 131.227 242.554 131.573 242.394 132.032C242.234 132.491 242.154 133.056 242.154 133.728C242.154 134.731 242.33 135.493 242.682 136.016C243.045 136.539 243.573 136.8 244.266 136.8C244.671 136.8 245.013 136.747 245.29 136.64C245.578 136.533 245.813 136.368 245.994 136.144C246.186 135.92 246.325 135.637 246.41 135.296C246.506 134.944 246.554 134.523 246.554 134.032V133.712C246.554 132.976 246.469 132.384 246.298 131.936C246.138 131.477 245.887 131.147 245.546 130.944C245.205 130.731 244.767 130.624 244.234 130.624ZM258.428 133.68C258.428 134.395 258.332 135.029 258.14 135.584C257.948 136.139 257.676 136.608 257.324 136.992C256.972 137.376 256.545 137.669 256.044 137.872C255.543 138.064 254.977 138.16 254.348 138.16C253.772 138.16 253.239 138.064 252.748 137.872C252.257 137.669 251.831 137.376 251.468 136.992C251.116 136.608 250.839 136.139 250.636 135.584C250.433 135.029 250.332 134.389 250.332 133.664C250.332 132.715 250.492 131.909 250.812 131.248C251.143 130.587 251.612 130.085 252.22 129.744C252.839 129.392 253.564 129.216 254.396 129.216C255.185 129.216 255.879 129.392 256.476 129.744C257.084 130.085 257.559 130.587 257.9 131.248C258.252 131.909 258.428 132.72 258.428 133.68ZM252.076 133.68C252.076 134.32 252.156 134.875 252.316 135.344C252.476 135.803 252.727 136.155 253.068 136.4C253.409 136.645 253.847 136.768 254.38 136.768C254.913 136.768 255.351 136.645 255.692 136.4C256.033 136.155 256.284 135.803 256.444 135.344C256.604 134.875 256.684 134.32 256.684 133.68C256.684 133.019 256.599 132.464 256.428 132.016C256.268 131.568 256.017 131.227 255.676 130.992C255.345 130.747 254.908 130.624 254.364 130.624C253.564 130.624 252.983 130.891 252.62 131.424C252.257 131.957 252.076 132.709 252.076 133.68ZM257.052 125.904C256.935 126.053 256.775 126.235 256.572 126.448C256.38 126.661 256.161 126.885 255.916 127.12C255.681 127.344 255.447 127.563 255.212 127.776C254.977 127.979 254.764 128.155 254.572 128.304H253.452V128.112C253.612 127.909 253.793 127.669 253.996 127.392C254.199 127.115 254.396 126.832 254.588 126.544C254.78 126.245 254.94 125.979 255.068 125.744H257.052V125.904ZM264.05 138.16C263.261 138.16 262.567 138.005 261.97 137.696C261.373 137.387 260.909 136.907 260.578 136.256C260.247 135.595 260.082 134.757 260.082 133.744C260.082 132.677 260.258 131.813 260.61 131.152C260.973 130.491 261.458 130.005 262.066 129.696C262.685 129.376 263.389 129.216 264.178 129.216C264.658 129.216 265.106 129.269 265.522 129.376C265.949 129.472 266.301 129.584 266.578 129.712L266.066 131.088C265.767 130.971 265.447 130.869 265.106 130.784C264.775 130.699 264.461 130.656 264.162 130.656C263.629 130.656 263.186 130.773 262.834 131.008C262.493 131.232 262.237 131.573 262.066 132.032C261.906 132.48 261.826 133.045 261.826 133.728C261.826 134.379 261.911 134.928 262.082 135.376C262.253 135.824 262.503 136.165 262.834 136.4C263.175 136.624 263.597 136.736 264.098 136.736C264.578 136.736 264.999 136.683 265.362 136.576C265.725 136.469 266.066 136.331 266.386 136.16V137.632C266.077 137.813 265.741 137.947 265.378 138.032C265.015 138.117 264.573 138.16 264.05 138.16ZM270.118 129.376V138H268.422V129.376H270.118ZM269.286 126.096C269.542 126.096 269.766 126.171 269.958 126.32C270.15 126.469 270.246 126.72 270.246 127.072C270.246 127.413 270.15 127.664 269.958 127.824C269.766 127.973 269.542 128.048 269.286 128.048C269.008 128.048 268.774 127.973 268.582 127.824C268.4 127.664 268.31 127.413 268.31 127.072C268.31 126.72 268.4 126.469 268.582 126.32C268.774 126.171 269.008 126.096 269.286 126.096ZM280.381 133.68C280.381 134.395 280.285 135.029 280.093 135.584C279.901 136.139 279.629 136.608 279.277 136.992C278.925 137.376 278.498 137.669 277.997 137.872C277.496 138.064 276.93 138.16 276.301 138.16C275.725 138.16 275.192 138.064 274.701 137.872C274.21 137.669 273.784 137.376 273.421 136.992C273.069 136.608 272.792 136.139 272.589 135.584C272.386 135.029 272.285 134.389 272.285 133.664C272.285 132.715 272.445 131.909 272.765 131.248C273.096 130.587 273.565 130.085 274.173 129.744C274.792 129.392 275.517 129.216 276.349 129.216C277.138 129.216 277.832 129.392 278.429 129.744C279.037 130.085 279.512 130.587 279.853 131.248C280.205 131.909 280.381 132.72 280.381 133.68ZM274.029 133.68C274.029 134.32 274.109 134.875 274.269 135.344C274.429 135.803 274.68 136.155 275.021 136.4C275.362 136.645 275.8 136.768 276.333 136.768C276.866 136.768 277.304 136.645 277.645 136.4C277.986 136.155 278.237 135.803 278.397 135.344C278.557 134.875 278.637 134.32 278.637 133.68C278.637 133.019 278.552 132.464 278.381 132.016C278.221 131.568 277.97 131.227 277.629 130.992C277.298 130.747 276.861 130.624 276.317 130.624C275.517 130.624 274.936 130.891 274.573 131.424C274.21 131.957 274.029 132.709 274.029 133.68ZM288.259 135.568C288.259 136.133 288.12 136.608 287.843 136.992C287.566 137.376 287.166 137.669 286.643 137.872C286.12 138.064 285.491 138.16 284.755 138.16C284.147 138.16 283.624 138.112 283.187 138.016C282.76 137.931 282.366 137.803 282.003 137.632V136.144C282.387 136.325 282.83 136.491 283.331 136.64C283.832 136.779 284.323 136.848 284.803 136.848C285.443 136.848 285.902 136.747 286.179 136.544C286.467 136.341 286.611 136.069 286.611 135.728C286.611 135.536 286.558 135.365 286.451 135.216C286.344 135.056 286.142 134.896 285.843 134.736C285.555 134.565 285.128 134.373 284.563 134.16C284.019 133.936 283.555 133.717 283.171 133.504C282.787 133.28 282.494 133.019 282.291 132.72C282.088 132.411 281.987 132.016 281.987 131.536C281.987 130.789 282.286 130.219 282.883 129.824C283.491 129.419 284.291 129.216 285.283 129.216C285.806 129.216 286.296 129.269 286.755 129.376C287.224 129.472 287.678 129.621 288.115 129.824L287.555 131.12C287.31 131.003 287.054 130.907 286.787 130.832C286.531 130.747 286.27 130.677 286.003 130.624C285.747 130.571 285.48 130.544 285.203 130.544C284.691 130.544 284.302 130.624 284.035 130.784C283.768 130.944 283.635 131.168 283.635 131.456C283.635 131.659 283.694 131.835 283.811 131.984C283.939 132.133 284.158 132.283 284.467 132.432C284.776 132.581 285.198 132.763 285.731 132.976C286.264 133.179 286.718 133.387 287.091 133.6C287.475 133.813 287.763 134.075 287.955 134.384C288.158 134.693 288.259 135.088 288.259 135.568ZM298.149 138H293.717V137.008L295.077 136.608V127.984L293.717 127.568V126.576H298.149V127.568L296.805 127.984V136.608L298.149 137.008V138ZM309.758 129.216C310.728 129.216 311.459 129.467 311.95 129.968C312.44 130.469 312.686 131.275 312.686 132.384V138H310.99V132.608C310.99 131.947 310.856 131.451 310.59 131.12C310.334 130.779 309.928 130.608 309.374 130.608C308.606 130.608 308.056 130.848 307.726 131.328C307.395 131.797 307.23 132.48 307.23 133.376V138H305.55V132.608C305.55 132.171 305.486 131.803 305.358 131.504C305.24 131.205 305.064 130.981 304.83 130.832C304.595 130.683 304.291 130.608 303.918 130.608C303.384 130.608 302.963 130.725 302.654 130.96C302.344 131.195 302.12 131.541 301.982 132C301.854 132.448 301.79 132.997 301.79 133.648V138H300.094V129.376H301.438L301.678 130.528H301.774C301.955 130.229 302.174 129.984 302.43 129.792C302.696 129.6 302.99 129.456 303.31 129.36C303.63 129.264 303.96 129.216 304.302 129.216C304.952 129.216 305.502 129.333 305.95 129.568C306.398 129.792 306.723 130.139 306.926 130.608H307.054C307.331 130.128 307.715 129.776 308.206 129.552C308.696 129.328 309.214 129.216 309.758 129.216ZM322.881 133.68C322.881 134.395 322.785 135.029 322.593 135.584C322.401 136.139 322.129 136.608 321.777 136.992C321.425 137.376 320.998 137.669 320.497 137.872C319.996 138.064 319.43 138.16 318.801 138.16C318.225 138.16 317.692 138.064 317.201 137.872C316.71 137.669 316.284 137.376 315.921 136.992C315.569 136.608 315.292 136.139 315.089 135.584C314.886 135.029 314.785 134.389 314.785 133.664C314.785 132.715 314.945 131.909 315.265 131.248C315.596 130.587 316.065 130.085 316.673 129.744C317.292 129.392 318.017 129.216 318.849 129.216C319.638 129.216 320.332 129.392 320.929 129.744C321.537 130.085 322.012 130.587 322.353 131.248C322.705 131.909 322.881 132.72 322.881 133.68ZM316.529 133.68C316.529 134.32 316.609 134.875 316.769 135.344C316.929 135.803 317.18 136.155 317.521 136.4C317.862 136.645 318.3 136.768 318.833 136.768C319.366 136.768 319.804 136.645 320.145 136.4C320.486 136.155 320.737 135.803 320.897 135.344C321.057 134.875 321.137 134.32 321.137 133.68C321.137 133.019 321.052 132.464 320.881 132.016C320.721 131.568 320.47 131.227 320.129 130.992C319.798 130.747 319.361 130.624 318.817 130.624C318.017 130.624 317.436 130.891 317.073 131.424C316.71 131.957 316.529 132.709 316.529 133.68ZM326.727 128.768C326.727 129.12 326.716 129.456 326.695 129.776C326.684 130.085 326.668 130.331 326.647 130.512H326.727C326.972 130.149 327.303 129.845 327.719 129.6C328.135 129.355 328.674 129.232 329.335 129.232C330.37 129.232 331.202 129.605 331.831 130.352C332.471 131.099 332.791 132.208 332.791 133.68C332.791 134.672 332.647 135.499 332.359 136.16C332.071 136.821 331.666 137.323 331.143 137.664C330.62 137.995 330.012 138.16 329.319 138.16C328.647 138.16 328.108 138.043 327.703 137.808C327.298 137.563 326.972 137.275 326.727 136.944H326.599L326.279 138H325.031V125.84H326.727V128.768ZM328.935 130.608C328.38 130.608 327.943 130.715 327.623 130.928C327.303 131.141 327.074 131.467 326.935 131.904C326.796 132.341 326.727 132.896 326.727 133.568V133.696C326.727 134.688 326.887 135.451 327.207 135.984C327.527 136.507 328.114 136.768 328.967 136.768C329.65 136.768 330.167 136.501 330.519 135.968C330.871 135.435 331.047 134.667 331.047 133.664C331.047 132.651 330.871 131.888 330.519 131.376C330.167 130.864 329.639 130.608 328.935 130.608ZM336.649 129.376V138H334.953V129.376H336.649ZM335.817 126.096C336.073 126.096 336.297 126.171 336.489 126.32C336.681 126.469 336.777 126.72 336.777 127.072C336.777 127.413 336.681 127.664 336.489 127.824C336.297 127.973 336.073 128.048 335.817 128.048C335.54 128.048 335.305 127.973 335.113 127.824C334.932 127.664 334.841 127.413 334.841 127.072C334.841 126.72 334.932 126.469 335.113 126.32C335.305 126.171 335.54 126.096 335.817 126.096ZM341.008 138H339.312V125.84H341.008V138ZM345.368 129.376V138H343.672V129.376H345.368ZM344.536 126.096C344.792 126.096 345.016 126.171 345.208 126.32C345.4 126.469 345.496 126.72 345.496 127.072C345.496 127.413 345.4 127.664 345.208 127.824C345.016 127.973 344.792 128.048 344.536 128.048C344.258 128.048 344.024 127.973 343.832 127.824C343.65 127.664 343.56 127.413 343.56 127.072C343.56 126.72 343.65 126.469 343.832 126.32C344.024 126.171 344.258 126.096 344.536 126.096ZM351.375 129.216C352.463 129.216 353.274 129.456 353.807 129.936C354.34 130.405 354.607 131.147 354.607 132.16V138H353.407L353.071 136.8H353.007C352.762 137.109 352.506 137.365 352.239 137.568C351.983 137.771 351.684 137.92 351.343 138.016C351.012 138.112 350.607 138.16 350.127 138.16C349.615 138.16 349.151 138.069 348.735 137.888C348.33 137.696 348.01 137.408 347.775 137.024C347.54 136.629 347.423 136.139 347.423 135.552C347.423 134.677 347.754 134.011 348.415 133.552C349.087 133.093 350.106 132.843 351.471 132.8L352.943 132.752V132.272C352.943 131.632 352.799 131.184 352.511 130.928C352.223 130.672 351.818 130.544 351.295 130.544C350.847 130.544 350.42 130.608 350.015 130.736C349.61 130.864 349.226 131.019 348.863 131.2L348.319 129.968C348.724 129.755 349.188 129.579 349.711 129.44C350.244 129.291 350.799 129.216 351.375 129.216ZM351.775 133.888C350.794 133.931 350.111 134.096 349.727 134.384C349.354 134.661 349.167 135.056 349.167 135.568C349.167 136.016 349.3 136.341 349.567 136.544C349.844 136.747 350.191 136.848 350.607 136.848C351.279 136.848 351.834 136.661 352.271 136.288C352.708 135.915 352.927 135.355 352.927 134.608V133.856L351.775 133.888ZM353.967 125.904C353.85 126.053 353.69 126.235 353.487 126.448C353.295 126.661 353.076 126.885 352.831 127.12C352.596 127.344 352.362 127.563 352.127 127.776C351.892 127.979 351.679 128.155 351.487 128.304H350.367V128.112C350.527 127.909 350.708 127.669 350.911 127.392C351.114 127.115 351.311 126.832 351.503 126.544C351.695 126.245 351.855 125.979 351.983 125.744H353.967V125.904ZM361.475 129.216C361.624 129.216 361.789 129.227 361.971 129.248C362.152 129.259 362.301 129.275 362.419 129.296L362.243 130.88C362.125 130.848 361.987 130.821 361.827 130.8C361.667 130.779 361.517 130.768 361.379 130.768C361.059 130.768 360.749 130.832 360.451 130.96C360.163 131.077 359.901 131.253 359.667 131.488C359.432 131.712 359.245 131.989 359.107 132.32C358.979 132.651 358.915 133.029 358.915 133.456V138H357.219V129.376H358.563L358.787 130.912H358.851C359.032 130.603 359.251 130.32 359.507 130.064C359.763 129.808 360.056 129.605 360.387 129.456C360.717 129.296 361.08 129.216 361.475 129.216ZM365.712 129.376V138H364.016V129.376H365.712ZM364.88 126.096C365.136 126.096 365.36 126.171 365.552 126.32C365.744 126.469 365.84 126.72 365.84 127.072C365.84 127.413 365.744 127.664 365.552 127.824C365.36 127.973 365.136 128.048 364.88 128.048C364.602 128.048 364.368 127.973 364.176 127.824C363.994 127.664 363.904 127.413 363.904 127.072C363.904 126.72 363.994 126.469 364.176 126.32C364.368 126.171 364.602 126.096 364.88 126.096ZM375.975 133.68C375.975 134.395 375.879 135.029 375.687 135.584C375.495 136.139 375.223 136.608 374.871 136.992C374.519 137.376 374.092 137.669 373.591 137.872C373.09 138.064 372.524 138.16 371.895 138.16C371.319 138.16 370.786 138.064 370.295 137.872C369.804 137.669 369.378 137.376 369.015 136.992C368.663 136.608 368.386 136.139 368.183 135.584C367.98 135.029 367.879 134.389 367.879 133.664C367.879 132.715 368.039 131.909 368.359 131.248C368.69 130.587 369.159 130.085 369.767 129.744C370.386 129.392 371.111 129.216 371.943 129.216C372.732 129.216 373.426 129.392 374.023 129.744C374.631 130.085 375.106 130.587 375.447 131.248C375.799 131.909 375.975 132.72 375.975 133.68ZM369.623 133.68C369.623 134.32 369.703 134.875 369.863 135.344C370.023 135.803 370.274 136.155 370.615 136.4C370.956 136.645 371.394 136.768 371.927 136.768C372.46 136.768 372.898 136.645 373.239 136.4C373.58 136.155 373.831 135.803 373.991 135.344C374.151 134.875 374.231 134.32 374.231 133.68C374.231 133.019 374.146 132.464 373.975 132.016C373.815 131.568 373.564 131.227 373.223 130.992C372.892 130.747 372.455 130.624 371.911 130.624C371.111 130.624 370.53 130.891 370.167 131.424C369.804 131.957 369.623 132.709 369.623 133.68ZM383.853 135.568C383.853 136.133 383.714 136.608 383.437 136.992C383.16 137.376 382.76 137.669 382.237 137.872C381.714 138.064 381.085 138.16 380.349 138.16C379.741 138.16 379.218 138.112 378.781 138.016C378.354 137.931 377.96 137.803 377.597 137.632V136.144C377.981 136.325 378.424 136.491 378.925 136.64C379.426 136.779 379.917 136.848 380.397 136.848C381.037 136.848 381.496 136.747 381.773 136.544C382.061 136.341 382.205 136.069 382.205 135.728C382.205 135.536 382.152 135.365 382.045 135.216C381.938 135.056 381.736 134.896 381.437 134.736C381.149 134.565 380.722 134.373 380.157 134.16C379.613 133.936 379.149 133.717 378.765 133.504C378.381 133.28 378.088 133.019 377.885 132.72C377.682 132.411 377.581 132.016 377.581 131.536C377.581 130.789 377.88 130.219 378.477 129.824C379.085 129.419 379.885 129.216 380.877 129.216C381.4 129.216 381.89 129.269 382.349 129.376C382.818 129.472 383.272 129.621 383.709 129.824L383.149 131.12C382.904 131.003 382.648 130.907 382.381 130.832C382.125 130.747 381.864 130.677 381.597 130.624C381.341 130.571 381.074 130.544 380.797 130.544C380.285 130.544 379.896 130.624 379.629 130.784C379.362 130.944 379.229 131.168 379.229 131.456C379.229 131.659 379.288 131.835 379.405 131.984C379.533 132.133 379.752 132.283 380.061 132.432C380.37 132.581 380.792 132.763 381.325 132.976C381.858 133.179 382.312 133.387 382.685 133.6C383.069 133.813 383.357 134.075 383.549 134.384C383.752 134.693 383.853 135.088 383.853 135.568Z" fill="black"/>
<path d="M5.31001 59.8767C54.5865 156.074 150.694 165.564 135.904 272.907" stroke="#373435" stroke-width="10"/>
<rect x="119" y="73" width="24" height="20" fill="#D9D9D9"/>
<rect x="119" y="106" width="24" height="20" fill="#D9D9D9"/>
<rect x="77" y="73" width="24" height="20" fill="#D9D9D9"/>
<defs>
<filter id="filter0_d_0_1" x="193.216" y="8.664" width="209.312" height="54.976" filterUnits="userSpaceOnUse" color-interpolation-filters="sRGB">
<feFlood flood-opacity="0" result="BackgroundImageFix"/>
<feColorMatrix in="SourceAlpha" type="matrix" values="0 0 0 0 0 0 0 0 0 0 0 0 0 0 0 0 0 0 127 0" result="hardAlpha"/>
<feOffset dy="4"/>
<feGaussianBlur stdDeviation="2"/>
<feComposite in2="hardAlpha" operator="out"/>
<feColorMatrix type="matrix" values="0 0 0 0 0 0 0 0 0 0 0 0 0 0 0 0 0 0 0.25 0"/>
<feBlend mode="normal" in2="BackgroundImageFix" result="effect1_dropShadow_0_1"/>
<feBlend mode="normal" in="SourceGraphic" in2="effect1_dropShadow_0_1" result="shape"/>
</filter>
<filter id="filter1_d_0_1" x="192" y="67" width="208" height="14" filterUnits="userSpaceOnUse" color-interpolation-filters="sRGB">
<feFlood flood-opacity="0" result="BackgroundImageFix"/>
<feColorMatrix in="SourceAlpha" type="matrix" values="0 0 0 0 0 0 0 0 0 0 0 0 0 0 0 0 0 0 127 0" result="hardAlpha"/>
<feOffset dy="4"/>
<feGaussianBlur stdDeviation="2"/>
<feComposite in2="hardAlpha" operator="out"/>
<feColorMatrix type="matrix" values="0 0 0 0 0 0 0 0 0 0 0 0 0 0 0 0 0 0 0.25 0"/>
<feBlend mode="normal" in2="BackgroundImageFix" result="effect1_dropShadow_0_1"/>
<feBlend mode="normal" in="SourceGraphic" in2="effect1_dropShadow_0_1" result="shape"/>
</filter>
</defs>
</svg>
